ISO-10303-21;
HEADER;
/* Generated by software containing ST-Developer
 * from STEP Tools, Inc. (www.steptools.com) 
 */

FILE_DESCRIPTION(
/* description */ (''),
/* implementation_level */ '2;1');

FILE_NAME(
/* name */ 'Baseplate.step',
/* time_stamp */ '2026-06-11T12:10:45+02:00',
/* author */ (''),
/* organization */ (''),
/* preprocessor_version */ 'ST-DEVELOPER v20.1',
/* originating_system */ 'Autodesk Translation Framework v15.8.0.0',
/* authorisation */ '');

FILE_SCHEMA (('AUTOMOTIVE_DESIGN { 1 0 10303 214 3 1 1 }'));
ENDSEC;

DATA;
#10=MECHANICAL_DESIGN_GEOMETRIC_PRESENTATION_REPRESENTATION('',(#13),#1140);
#11=SHAPE_REPRESENTATION_RELATIONSHIP('SRR','None',#1147,#12);
#12=ADVANCED_BREP_SHAPE_REPRESENTATION('',(#14),#1139);
#13=STYLED_ITEM('',(#1156),#14);
#14=MANIFOLD_SOLID_BREP('Base/Walls',#676);
#15=CYLINDRICAL_SURFACE('',#711,1.49999999999999);
#16=CYLINDRICAL_SURFACE('',#715,3.5);
#17=CYLINDRICAL_SURFACE('',#719,3.50000000000001);
#18=CYLINDRICAL_SURFACE('',#723,3.50000000000001);
#19=CYLINDRICAL_SURFACE('',#727,3.);
#20=CYLINDRICAL_SURFACE('',#738,1.40000000000001);
#21=CYLINDRICAL_SURFACE('',#739,1.4);
#22=CYLINDRICAL_SURFACE('',#740,1.40000000000001);
#23=CYLINDRICAL_SURFACE('',#741,1.4);
#24=CYLINDRICAL_SURFACE('',#742,3.50000000000001);
#25=CYLINDRICAL_SURFACE('',#744,3.50000000000001);
#26=CYLINDRICAL_SURFACE('',#746,3.5);
#27=CYLINDRICAL_SURFACE('',#748,3.5);
#28=LINE('',#975,#89);
#29=LINE('',#977,#90);
#30=LINE('',#979,#91);
#31=LINE('',#980,#92);
#32=LINE('',#983,#93);
#33=LINE('',#985,#94);
#34=LINE('',#986,#95);
#35=LINE('',#989,#96);
#36=LINE('',#991,#97);
#37=LINE('',#992,#98);
#38=LINE('',#995,#99);
#39=LINE('',#997,#100);
#40=LINE('',#999,#101);
#41=LINE('',#1001,#102);
#42=LINE('',#1003,#103);
#43=LINE('',#1005,#104);
#44=LINE('',#1007,#105);
#45=LINE('',#1009,#106);
#46=LINE('',#1010,#107);
#47=LINE('',#1012,#108);
#48=LINE('',#1014,#109);
#49=LINE('',#1016,#110);
#50=LINE('',#1018,#111);
#51=LINE('',#1019,#112);
#52=LINE('',#1030,#113);
#53=LINE('',#1032,#114);
#54=LINE('',#1033,#115);
#55=LINE('',#1038,#116);
#56=LINE('',#1045,#117);
#57=LINE('',#1052,#118);
#58=LINE('',#1059,#119);
#59=LINE('',#1066,#120);
#60=LINE('',#1071,#121);
#61=LINE('',#1072,#122);
#62=LINE('',#1075,#123);
#63=LINE('',#1076,#124);
#64=LINE('',#1079,#125);
#65=LINE('',#1080,#126);
#66=LINE('',#1083,#127);
#67=LINE('',#1084,#128);
#68=LINE('',#1087,#129);
#69=LINE('',#1088,#130);
#70=LINE('',#1091,#131);
#71=LINE('',#1092,#132);
#72=LINE('',#1094,#133);
#73=LINE('',#1096,#134);
#74=LINE('',#1098,#135);
#75=LINE('',#1100,#136);
#76=LINE('',#1102,#137);
#77=LINE('',#1106,#138);
#78=LINE('',#1110,#139);
#79=LINE('',#1114,#140);
#80=LINE('',#1118,#141);
#81=LINE('',#1121,#142);
#82=LINE('',#1123,#143);
#83=LINE('',#1124,#144);
#84=LINE('',#1127,#145);
#85=LINE('',#1128,#146);
#86=LINE('',#1131,#147);
#87=LINE('',#1132,#148);
#88=LINE('',#1134,#149);
#89=VECTOR('',#784,10.);
#90=VECTOR('',#785,10.);
#91=VECTOR('',#786,10.);
#92=VECTOR('',#787,10.);
#93=VECTOR('',#790,10.);
#94=VECTOR('',#791,10.);
#95=VECTOR('',#792,10.);
#96=VECTOR('',#795,10.);
#97=VECTOR('',#796,10.);
#98=VECTOR('',#797,10.);
#99=VECTOR('',#800,10.);
#100=VECTOR('',#801,10.);
#101=VECTOR('',#802,10.);
#102=VECTOR('',#803,10.);
#103=VECTOR('',#804,10.);
#104=VECTOR('',#805,10.);
#105=VECTOR('',#806,10.);
#106=VECTOR('',#807,10.);
#107=VECTOR('',#808,10.);
#108=VECTOR('',#809,10.);
#109=VECTOR('',#810,10.);
#110=VECTOR('',#811,10.);
#111=VECTOR('',#812,10.);
#112=VECTOR('',#813,10.);
#113=VECTOR('',#824,10.);
#114=VECTOR('',#825,10.);
#115=VECTOR('',#826,10.);
#116=VECTOR('',#831,1.49999999999999);
#117=VECTOR('',#840,3.5);
#118=VECTOR('',#849,3.50000000000001);
#119=VECTOR('',#858,3.50000000000001);
#120=VECTOR('',#867,3.);
#121=VECTOR('',#874,10.);
#122=VECTOR('',#875,10.);
#123=VECTOR('',#878,10.);
#124=VECTOR('',#879,10.);
#125=VECTOR('',#882,10.);
#126=VECTOR('',#883,10.);
#127=VECTOR('',#886,10.);
#128=VECTOR('',#887,10.);
#129=VECTOR('',#890,10.);
#130=VECTOR('',#891,10.);
#131=VECTOR('',#894,10.);
#132=VECTOR('',#895,10.);
#133=VECTOR('',#898,10.);
#134=VECTOR('',#901,1.40000000000001);
#135=VECTOR('',#904,1.4);
#136=VECTOR('',#907,1.40000000000001);
#137=VECTOR('',#910,1.4);
#138=VECTOR('',#915,3.50000000000001);
#139=VECTOR('',#920,3.5);
#140=VECTOR('',#925,3.5);
#141=VECTOR('',#930,3.5);
#142=VECTOR('',#933,10.);
#143=VECTOR('',#934,10.);
#144=VECTOR('',#935,10.);
#145=VECTOR('',#938,10.);
#146=VECTOR('',#939,10.);
#147=VECTOR('',#942,10.);
#148=VECTOR('',#943,10.);
#149=VECTOR('',#946,10.);
#150=FACE_BOUND('',#208,.T.);
#151=FACE_BOUND('',#210,.T.);
#152=FACE_BOUND('',#212,.T.);
#153=FACE_BOUND('',#214,.T.);
#154=FACE_BOUND('',#219,.T.);
#155=FACE_BOUND('',#220,.T.);
#156=FACE_BOUND('',#221,.T.);
#157=FACE_BOUND('',#222,.T.);
#158=FACE_BOUND('',#234,.T.);
#159=FACE_BOUND('',#255,.T.);
#160=FACE_BOUND('',#256,.T.);
#161=FACE_BOUND('',#257,.T.);
#162=FACE_BOUND('',#258,.T.);
#163=FACE_BOUND('',#260,.T.);
#164=FACE_BOUND('',#261,.T.);
#165=FACE_BOUND('',#262,.T.);
#166=FACE_BOUND('',#263,.T.);
#167=FACE_OUTER_BOUND('',#207,.T.);
#168=FACE_OUTER_BOUND('',#209,.T.);
#169=FACE_OUTER_BOUND('',#211,.T.);
#170=FACE_OUTER_BOUND('',#213,.T.);
#171=FACE_OUTER_BOUND('',#215,.T.);
#172=FACE_OUTER_BOUND('',#216,.T.);
#173=FACE_OUTER_BOUND('',#217,.T.);
#174=FACE_OUTER_BOUND('',#218,.T.);
#175=FACE_OUTER_BOUND('',#223,.T.);
#176=FACE_OUTER_BOUND('',#224,.T.);
#177=FACE_OUTER_BOUND('',#225,.T.);
#178=FACE_OUTER_BOUND('',#226,.T.);
#179=FACE_OUTER_BOUND('',#227,.T.);
#180=FACE_OUTER_BOUND('',#228,.T.);
#181=FACE_OUTER_BOUND('',#229,.T.);
#182=FACE_OUTER_BOUND('',#230,.T.);
#183=FACE_OUTER_BOUND('',#231,.T.);
#184=FACE_OUTER_BOUND('',#232,.T.);
#185=FACE_OUTER_BOUND('',#233,.T.);
#186=FACE_OUTER_BOUND('',#235,.T.);
#187=FACE_OUTER_BOUND('',#236,.T.);
#188=FACE_OUTER_BOUND('',#237,.T.);
#189=FACE_OUTER_BOUND('',#238,.T.);
#190=FACE_OUTER_BOUND('',#239,.T.);
#191=FACE_OUTER_BOUND('',#240,.T.);
#192=FACE_OUTER_BOUND('',#241,.T.);
#193=FACE_OUTER_BOUND('',#242,.T.);
#194=FACE_OUTER_BOUND('',#243,.T.);
#195=FACE_OUTER_BOUND('',#244,.T.);
#196=FACE_OUTER_BOUND('',#245,.T.);
#197=FACE_OUTER_BOUND('',#246,.T.);
#198=FACE_OUTER_BOUND('',#247,.T.);
#199=FACE_OUTER_BOUND('',#248,.T.);
#200=FACE_OUTER_BOUND('',#249,.T.);
#201=FACE_OUTER_BOUND('',#250,.T.);
#202=FACE_OUTER_BOUND('',#251,.T.);
#203=FACE_OUTER_BOUND('',#252,.T.);
#204=FACE_OUTER_BOUND('',#253,.T.);
#205=FACE_OUTER_BOUND('',#254,.T.);
#206=FACE_OUTER_BOUND('',#259,.T.);
#207=EDGE_LOOP('',(#435));
#208=EDGE_LOOP('',(#436));
#209=EDGE_LOOP('',(#437));
#210=EDGE_LOOP('',(#438));
#211=EDGE_LOOP('',(#439));
#212=EDGE_LOOP('',(#440));
#213=EDGE_LOOP('',(#441));
#214=EDGE_LOOP('',(#442));
#215=EDGE_LOOP('',(#443,#444,#445,#446));
#216=EDGE_LOOP('',(#447,#448,#449,#450));
#217=EDGE_LOOP('',(#451,#452,#453,#454));
#218=EDGE_LOOP('',(#455,#456,#457,#458,#459,#460,#461,#462,#463,#464,#465,
#466,#467,#468,#469,#470));
#219=EDGE_LOOP('',(#471));
#220=EDGE_LOOP('',(#472));
#221=EDGE_LOOP('',(#473));
#222=EDGE_LOOP('',(#474));
#223=EDGE_LOOP('',(#475,#476,#477,#478,#479,#480,#481,#482));
#224=EDGE_LOOP('',(#483,#484,#485,#486));
#225=EDGE_LOOP('',(#487));
#226=EDGE_LOOP('',(#488,#489,#490,#491));
#227=EDGE_LOOP('',(#492));
#228=EDGE_LOOP('',(#493,#494,#495,#496));
#229=EDGE_LOOP('',(#497));
#230=EDGE_LOOP('',(#498,#499,#500,#501));
#231=EDGE_LOOP('',(#502));
#232=EDGE_LOOP('',(#503,#504,#505,#506));
#233=EDGE_LOOP('',(#507));
#234=EDGE_LOOP('',(#508));
#235=EDGE_LOOP('',(#509,#510,#511,#512));
#236=EDGE_LOOP('',(#513,#514,#515,#516));
#237=EDGE_LOOP('',(#517,#518,#519,#520));
#238=EDGE_LOOP('',(#521,#522,#523,#524));
#239=EDGE_LOOP('',(#525,#526,#527,#528));
#240=EDGE_LOOP('',(#529,#530,#531,#532));
#241=EDGE_LOOP('',(#533,#534,#535,#536));
#242=EDGE_LOOP('',(#537,#538,#539,#540));
#243=EDGE_LOOP('',(#541,#542,#543,#544));
#244=EDGE_LOOP('',(#545,#546,#547,#548));
#245=EDGE_LOOP('',(#549,#550,#551,#552));
#246=EDGE_LOOP('',(#553,#554,#555,#556));
#247=EDGE_LOOP('',(#557,#558,#559,#560));
#248=EDGE_LOOP('',(#561,#562,#563,#564));
#249=EDGE_LOOP('',(#565,#566,#567,#568));
#250=EDGE_LOOP('',(#569,#570,#571,#572,#573,#574,#575,#576));
#251=EDGE_LOOP('',(#577,#578,#579,#580));
#252=EDGE_LOOP('',(#581,#582,#583,#584));
#253=EDGE_LOOP('',(#585,#586,#587,#588));
#254=EDGE_LOOP('',(#589,#590,#591,#592));
#255=EDGE_LOOP('',(#593));
#256=EDGE_LOOP('',(#594));
#257=EDGE_LOOP('',(#595));
#258=EDGE_LOOP('',(#596));
#259=EDGE_LOOP('',(#597,#598,#599,#600,#601,#602,#603,#604));
#260=EDGE_LOOP('',(#605));
#261=EDGE_LOOP('',(#606));
#262=EDGE_LOOP('',(#607));
#263=EDGE_LOOP('',(#608));
#264=CIRCLE('',#691,3.50000000000001);
#265=CIRCLE('',#692,1.4);
#266=CIRCLE('',#694,3.5);
#267=CIRCLE('',#695,1.40000000000001);
#268=CIRCLE('',#697,3.50000000000001);
#269=CIRCLE('',#698,1.40000000000001);
#270=CIRCLE('',#700,3.5);
#271=CIRCLE('',#701,1.4);
#272=CIRCLE('',#706,1.40000000000001);
#273=CIRCLE('',#707,1.4);
#274=CIRCLE('',#708,1.40000000000001);
#275=CIRCLE('',#709,1.4);
#276=CIRCLE('',#712,1.49999999999999);
#277=CIRCLE('',#713,1.49999999999999);
#278=CIRCLE('',#716,3.5);
#279=CIRCLE('',#717,3.5);
#280=CIRCLE('',#720,3.50000000000001);
#281=CIRCLE('',#721,3.50000000000001);
#282=CIRCLE('',#724,3.50000000000001);
#283=CIRCLE('',#725,3.50000000000001);
#284=CIRCLE('',#728,3.);
#285=CIRCLE('',#729,3.);
#286=CIRCLE('',#743,3.50000000000001);
#287=CIRCLE('',#745,3.50000000000001);
#288=CIRCLE('',#747,3.5);
#289=CIRCLE('',#749,3.5);
#290=VERTEX_POINT('',#953);
#291=VERTEX_POINT('',#955);
#292=VERTEX_POINT('',#958);
#293=VERTEX_POINT('',#960);
#294=VERTEX_POINT('',#963);
#295=VERTEX_POINT('',#965);
#296=VERTEX_POINT('',#968);
#297=VERTEX_POINT('',#970);
#298=VERTEX_POINT('',#973);
#299=VERTEX_POINT('',#974);
#300=VERTEX_POINT('',#976);
#301=VERTEX_POINT('',#978);
#302=VERTEX_POINT('',#982);
#303=VERTEX_POINT('',#984);
#304=VERTEX_POINT('',#988);
#305=VERTEX_POINT('',#990);
#306=VERTEX_POINT('',#994);
#307=VERTEX_POINT('',#996);
#308=VERTEX_POINT('',#998);
#309=VERTEX_POINT('',#1000);
#310=VERTEX_POINT('',#1002);
#311=VERTEX_POINT('',#1004);
#312=VERTEX_POINT('',#1006);
#313=VERTEX_POINT('',#1008);
#314=VERTEX_POINT('',#1011);
#315=VERTEX_POINT('',#1013);
#316=VERTEX_POINT('',#1015);
#317=VERTEX_POINT('',#1017);
#318=VERTEX_POINT('',#1020);
#319=VERTEX_POINT('',#1022);
#320=VERTEX_POINT('',#1024);
#321=VERTEX_POINT('',#1026);
#322=VERTEX_POINT('',#1029);
#323=VERTEX_POINT('',#1031);
#324=VERTEX_POINT('',#1035);
#325=VERTEX_POINT('',#1037);
#326=VERTEX_POINT('',#1042);
#327=VERTEX_POINT('',#1044);
#328=VERTEX_POINT('',#1049);
#329=VERTEX_POINT('',#1051);
#330=VERTEX_POINT('',#1056);
#331=VERTEX_POINT('',#1058);
#332=VERTEX_POINT('',#1063);
#333=VERTEX_POINT('',#1065);
#334=VERTEX_POINT('',#1070);
#335=VERTEX_POINT('',#1074);
#336=VERTEX_POINT('',#1078);
#337=VERTEX_POINT('',#1082);
#338=VERTEX_POINT('',#1086);
#339=VERTEX_POINT('',#1090);
#340=VERTEX_POINT('',#1104);
#341=VERTEX_POINT('',#1108);
#342=VERTEX_POINT('',#1112);
#343=VERTEX_POINT('',#1116);
#344=VERTEX_POINT('',#1120);
#345=VERTEX_POINT('',#1122);
#346=VERTEX_POINT('',#1126);
#347=VERTEX_POINT('',#1130);
#348=EDGE_CURVE('',#290,#290,#264,.T.);
#349=EDGE_CURVE('',#291,#291,#265,.T.);
#350=EDGE_CURVE('',#292,#292,#266,.T.);
#351=EDGE_CURVE('',#293,#293,#267,.T.);
#352=EDGE_CURVE('',#294,#294,#268,.T.);
#353=EDGE_CURVE('',#295,#295,#269,.T.);
#354=EDGE_CURVE('',#296,#296,#270,.T.);
#355=EDGE_CURVE('',#297,#297,#271,.T.);
#356=EDGE_CURVE('',#298,#299,#28,.T.);
#357=EDGE_CURVE('',#298,#300,#29,.T.);
#358=EDGE_CURVE('',#301,#300,#30,.T.);
#359=EDGE_CURVE('',#299,#301,#31,.T.);
#360=EDGE_CURVE('',#302,#298,#32,.T.);
#361=EDGE_CURVE('',#302,#303,#33,.T.);
#362=EDGE_CURVE('',#300,#303,#34,.T.);
#363=EDGE_CURVE('',#304,#302,#35,.T.);
#364=EDGE_CURVE('',#305,#304,#36,.T.);
#365=EDGE_CURVE('',#303,#305,#37,.T.);
#366=EDGE_CURVE('',#304,#306,#38,.T.);
#367=EDGE_CURVE('',#307,#306,#39,.T.);
#368=EDGE_CURVE('',#307,#308,#40,.T.);
#369=EDGE_CURVE('',#309,#308,#41,.T.);
#370=EDGE_CURVE('',#309,#310,#42,.T.);
#371=EDGE_CURVE('',#311,#310,#43,.T.);
#372=EDGE_CURVE('',#311,#312,#44,.T.);
#373=EDGE_CURVE('',#313,#312,#45,.T.);
#374=EDGE_CURVE('',#313,#299,#46,.T.);
#375=EDGE_CURVE('',#301,#314,#47,.T.);
#376=EDGE_CURVE('',#314,#315,#48,.T.);
#377=EDGE_CURVE('',#315,#316,#49,.T.);
#378=EDGE_CURVE('',#316,#317,#50,.T.);
#379=EDGE_CURVE('',#317,#305,#51,.T.);
#380=EDGE_CURVE('',#318,#318,#272,.T.);
#381=EDGE_CURVE('',#319,#319,#273,.T.);
#382=EDGE_CURVE('',#320,#320,#274,.T.);
#383=EDGE_CURVE('',#321,#321,#275,.T.);
#384=EDGE_CURVE('',#322,#313,#52,.T.);
#385=EDGE_CURVE('',#322,#323,#53,.T.);
#386=EDGE_CURVE('',#306,#323,#54,.T.);
#387=EDGE_CURVE('',#324,#324,#276,.T.);
#388=EDGE_CURVE('',#324,#325,#55,.T.);
#389=EDGE_CURVE('',#325,#325,#277,.T.);
#390=EDGE_CURVE('',#326,#326,#278,.T.);
#391=EDGE_CURVE('',#326,#327,#56,.T.);
#392=EDGE_CURVE('',#327,#327,#279,.T.);
#393=EDGE_CURVE('',#328,#328,#280,.T.);
#394=EDGE_CURVE('',#328,#329,#57,.T.);
#395=EDGE_CURVE('',#329,#329,#281,.T.);
#396=EDGE_CURVE('',#330,#330,#282,.T.);
#397=EDGE_CURVE('',#330,#331,#58,.T.);
#398=EDGE_CURVE('',#331,#331,#283,.T.);
#399=EDGE_CURVE('',#332,#332,#284,.T.);
#400=EDGE_CURVE('',#332,#333,#59,.T.);
#401=EDGE_CURVE('',#333,#333,#285,.T.);
#402=EDGE_CURVE('',#323,#334,#60,.T.);
#403=EDGE_CURVE('',#334,#307,#61,.T.);
#404=EDGE_CURVE('',#312,#335,#62,.T.);
#405=EDGE_CURVE('',#335,#322,#63,.T.);
#406=EDGE_CURVE('',#336,#311,#64,.T.);
#407=EDGE_CURVE('',#336,#335,#65,.T.);
#408=EDGE_CURVE('',#310,#337,#66,.T.);
#409=EDGE_CURVE('',#337,#336,#67,.T.);
#410=EDGE_CURVE('',#338,#309,#68,.T.);
#411=EDGE_CURVE('',#338,#337,#69,.T.);
#412=EDGE_CURVE('',#308,#339,#70,.T.);
#413=EDGE_CURVE('',#339,#338,#71,.T.);
#414=EDGE_CURVE('',#334,#339,#72,.T.);
#415=EDGE_CURVE('',#293,#318,#73,.T.);
#416=EDGE_CURVE('',#291,#319,#74,.T.);
#417=EDGE_CURVE('',#295,#320,#75,.T.);
#418=EDGE_CURVE('',#297,#321,#76,.T.);
#419=EDGE_CURVE('',#340,#340,#286,.T.);
#420=EDGE_CURVE('',#340,#294,#77,.T.);
#421=EDGE_CURVE('',#341,#341,#287,.T.);
#422=EDGE_CURVE('',#341,#290,#78,.T.);
#423=EDGE_CURVE('',#342,#342,#288,.T.);
#424=EDGE_CURVE('',#342,#292,#79,.T.);
#425=EDGE_CURVE('',#343,#343,#289,.T.);
#426=EDGE_CURVE('',#343,#296,#80,.T.);
#427=EDGE_CURVE('',#344,#317,#81,.T.);
#428=EDGE_CURVE('',#345,#344,#82,.T.);
#429=EDGE_CURVE('',#345,#314,#83,.T.);
#430=EDGE_CURVE('',#344,#346,#84,.T.);
#431=EDGE_CURVE('',#346,#316,#85,.T.);
#432=EDGE_CURVE('',#346,#347,#86,.T.);
#433=EDGE_CURVE('',#347,#315,#87,.T.);
#434=EDGE_CURVE('',#347,#345,#88,.T.);
#435=ORIENTED_EDGE('',*,*,#348,.F.);
#436=ORIENTED_EDGE('',*,*,#349,.F.);
#437=ORIENTED_EDGE('',*,*,#350,.F.);
#438=ORIENTED_EDGE('',*,*,#351,.F.);
#439=ORIENTED_EDGE('',*,*,#352,.F.);
#440=ORIENTED_EDGE('',*,*,#353,.F.);
#441=ORIENTED_EDGE('',*,*,#354,.F.);
#442=ORIENTED_EDGE('',*,*,#355,.F.);
#443=ORIENTED_EDGE('',*,*,#356,.F.);
#444=ORIENTED_EDGE('',*,*,#357,.T.);
#445=ORIENTED_EDGE('',*,*,#358,.F.);
#446=ORIENTED_EDGE('',*,*,#359,.F.);
#447=ORIENTED_EDGE('',*,*,#360,.F.);
#448=ORIENTED_EDGE('',*,*,#361,.T.);
#449=ORIENTED_EDGE('',*,*,#362,.F.);
#450=ORIENTED_EDGE('',*,*,#357,.F.);
#451=ORIENTED_EDGE('',*,*,#363,.F.);
#452=ORIENTED_EDGE('',*,*,#364,.F.);
#453=ORIENTED_EDGE('',*,*,#365,.F.);
#454=ORIENTED_EDGE('',*,*,#361,.F.);
#455=ORIENTED_EDGE('',*,*,#364,.T.);
#456=ORIENTED_EDGE('',*,*,#366,.T.);
#457=ORIENTED_EDGE('',*,*,#367,.F.);
#458=ORIENTED_EDGE('',*,*,#368,.T.);
#459=ORIENTED_EDGE('',*,*,#369,.F.);
#460=ORIENTED_EDGE('',*,*,#370,.T.);
#461=ORIENTED_EDGE('',*,*,#371,.F.);
#462=ORIENTED_EDGE('',*,*,#372,.T.);
#463=ORIENTED_EDGE('',*,*,#373,.F.);
#464=ORIENTED_EDGE('',*,*,#374,.T.);
#465=ORIENTED_EDGE('',*,*,#359,.T.);
#466=ORIENTED_EDGE('',*,*,#375,.T.);
#467=ORIENTED_EDGE('',*,*,#376,.T.);
#468=ORIENTED_EDGE('',*,*,#377,.T.);
#469=ORIENTED_EDGE('',*,*,#378,.T.);
#470=ORIENTED_EDGE('',*,*,#379,.T.);
#471=ORIENTED_EDGE('',*,*,#380,.T.);
#472=ORIENTED_EDGE('',*,*,#381,.T.);
#473=ORIENTED_EDGE('',*,*,#382,.T.);
#474=ORIENTED_EDGE('',*,*,#383,.T.);
#475=ORIENTED_EDGE('',*,*,#363,.T.);
#476=ORIENTED_EDGE('',*,*,#360,.T.);
#477=ORIENTED_EDGE('',*,*,#356,.T.);
#478=ORIENTED_EDGE('',*,*,#374,.F.);
#479=ORIENTED_EDGE('',*,*,#384,.F.);
#480=ORIENTED_EDGE('',*,*,#385,.T.);
#481=ORIENTED_EDGE('',*,*,#386,.F.);
#482=ORIENTED_EDGE('',*,*,#366,.F.);
#483=ORIENTED_EDGE('',*,*,#387,.F.);
#484=ORIENTED_EDGE('',*,*,#388,.T.);
#485=ORIENTED_EDGE('',*,*,#389,.F.);
#486=ORIENTED_EDGE('',*,*,#388,.F.);
#487=ORIENTED_EDGE('',*,*,#387,.T.);
#488=ORIENTED_EDGE('',*,*,#390,.F.);
#489=ORIENTED_EDGE('',*,*,#391,.T.);
#490=ORIENTED_EDGE('',*,*,#392,.F.);
#491=ORIENTED_EDGE('',*,*,#391,.F.);
#492=ORIENTED_EDGE('',*,*,#390,.T.);
#493=ORIENTED_EDGE('',*,*,#393,.F.);
#494=ORIENTED_EDGE('',*,*,#394,.T.);
#495=ORIENTED_EDGE('',*,*,#395,.F.);
#496=ORIENTED_EDGE('',*,*,#394,.F.);
#497=ORIENTED_EDGE('',*,*,#393,.T.);
#498=ORIENTED_EDGE('',*,*,#396,.F.);
#499=ORIENTED_EDGE('',*,*,#397,.T.);
#500=ORIENTED_EDGE('',*,*,#398,.F.);
#501=ORIENTED_EDGE('',*,*,#397,.F.);
#502=ORIENTED_EDGE('',*,*,#396,.T.);
#503=ORIENTED_EDGE('',*,*,#399,.F.);
#504=ORIENTED_EDGE('',*,*,#400,.T.);
#505=ORIENTED_EDGE('',*,*,#401,.F.);
#506=ORIENTED_EDGE('',*,*,#400,.F.);
#507=ORIENTED_EDGE('',*,*,#399,.T.);
#508=ORIENTED_EDGE('',*,*,#389,.T.);
#509=ORIENTED_EDGE('',*,*,#367,.T.);
#510=ORIENTED_EDGE('',*,*,#386,.T.);
#511=ORIENTED_EDGE('',*,*,#402,.T.);
#512=ORIENTED_EDGE('',*,*,#403,.T.);
#513=ORIENTED_EDGE('',*,*,#373,.T.);
#514=ORIENTED_EDGE('',*,*,#404,.T.);
#515=ORIENTED_EDGE('',*,*,#405,.T.);
#516=ORIENTED_EDGE('',*,*,#384,.T.);
#517=ORIENTED_EDGE('',*,*,#404,.F.);
#518=ORIENTED_EDGE('',*,*,#372,.F.);
#519=ORIENTED_EDGE('',*,*,#406,.F.);
#520=ORIENTED_EDGE('',*,*,#407,.T.);
#521=ORIENTED_EDGE('',*,*,#371,.T.);
#522=ORIENTED_EDGE('',*,*,#408,.T.);
#523=ORIENTED_EDGE('',*,*,#409,.T.);
#524=ORIENTED_EDGE('',*,*,#406,.T.);
#525=ORIENTED_EDGE('',*,*,#408,.F.);
#526=ORIENTED_EDGE('',*,*,#370,.F.);
#527=ORIENTED_EDGE('',*,*,#410,.F.);
#528=ORIENTED_EDGE('',*,*,#411,.T.);
#529=ORIENTED_EDGE('',*,*,#369,.T.);
#530=ORIENTED_EDGE('',*,*,#412,.T.);
#531=ORIENTED_EDGE('',*,*,#413,.T.);
#532=ORIENTED_EDGE('',*,*,#410,.T.);
#533=ORIENTED_EDGE('',*,*,#403,.F.);
#534=ORIENTED_EDGE('',*,*,#414,.T.);
#535=ORIENTED_EDGE('',*,*,#412,.F.);
#536=ORIENTED_EDGE('',*,*,#368,.F.);
#537=ORIENTED_EDGE('',*,*,#351,.T.);
#538=ORIENTED_EDGE('',*,*,#415,.T.);
#539=ORIENTED_EDGE('',*,*,#380,.F.);
#540=ORIENTED_EDGE('',*,*,#415,.F.);
#541=ORIENTED_EDGE('',*,*,#349,.T.);
#542=ORIENTED_EDGE('',*,*,#416,.T.);
#543=ORIENTED_EDGE('',*,*,#381,.F.);
#544=ORIENTED_EDGE('',*,*,#416,.F.);
#545=ORIENTED_EDGE('',*,*,#353,.T.);
#546=ORIENTED_EDGE('',*,*,#417,.T.);
#547=ORIENTED_EDGE('',*,*,#382,.F.);
#548=ORIENTED_EDGE('',*,*,#417,.F.);
#549=ORIENTED_EDGE('',*,*,#355,.T.);
#550=ORIENTED_EDGE('',*,*,#418,.T.);
#551=ORIENTED_EDGE('',*,*,#383,.F.);
#552=ORIENTED_EDGE('',*,*,#418,.F.);
#553=ORIENTED_EDGE('',*,*,#419,.F.);
#554=ORIENTED_EDGE('',*,*,#420,.T.);
#555=ORIENTED_EDGE('',*,*,#352,.T.);
#556=ORIENTED_EDGE('',*,*,#420,.F.);
#557=ORIENTED_EDGE('',*,*,#421,.F.);
#558=ORIENTED_EDGE('',*,*,#422,.T.);
#559=ORIENTED_EDGE('',*,*,#348,.T.);
#560=ORIENTED_EDGE('',*,*,#422,.F.);
#561=ORIENTED_EDGE('',*,*,#423,.F.);
#562=ORIENTED_EDGE('',*,*,#424,.T.);
#563=ORIENTED_EDGE('',*,*,#350,.T.);
#564=ORIENTED_EDGE('',*,*,#424,.F.);
#565=ORIENTED_EDGE('',*,*,#425,.F.);
#566=ORIENTED_EDGE('',*,*,#426,.T.);
#567=ORIENTED_EDGE('',*,*,#354,.T.);
#568=ORIENTED_EDGE('',*,*,#426,.F.);
#569=ORIENTED_EDGE('',*,*,#365,.T.);
#570=ORIENTED_EDGE('',*,*,#379,.F.);
#571=ORIENTED_EDGE('',*,*,#427,.F.);
#572=ORIENTED_EDGE('',*,*,#428,.F.);
#573=ORIENTED_EDGE('',*,*,#429,.T.);
#574=ORIENTED_EDGE('',*,*,#375,.F.);
#575=ORIENTED_EDGE('',*,*,#358,.T.);
#576=ORIENTED_EDGE('',*,*,#362,.T.);
#577=ORIENTED_EDGE('',*,*,#430,.F.);
#578=ORIENTED_EDGE('',*,*,#427,.T.);
#579=ORIENTED_EDGE('',*,*,#378,.F.);
#580=ORIENTED_EDGE('',*,*,#431,.F.);
#581=ORIENTED_EDGE('',*,*,#432,.F.);
#582=ORIENTED_EDGE('',*,*,#431,.T.);
#583=ORIENTED_EDGE('',*,*,#377,.F.);
#584=ORIENTED_EDGE('',*,*,#433,.F.);
#585=ORIENTED_EDGE('',*,*,#434,.F.);
#586=ORIENTED_EDGE('',*,*,#433,.T.);
#587=ORIENTED_EDGE('',*,*,#376,.F.);
#588=ORIENTED_EDGE('',*,*,#429,.F.);
#589=ORIENTED_EDGE('',*,*,#428,.T.);
#590=ORIENTED_EDGE('',*,*,#430,.T.);
#591=ORIENTED_EDGE('',*,*,#432,.T.);
#592=ORIENTED_EDGE('',*,*,#434,.T.);
#593=ORIENTED_EDGE('',*,*,#392,.T.);
#594=ORIENTED_EDGE('',*,*,#395,.T.);
#595=ORIENTED_EDGE('',*,*,#398,.T.);
#596=ORIENTED_EDGE('',*,*,#401,.T.);
#597=ORIENTED_EDGE('',*,*,#402,.F.);
#598=ORIENTED_EDGE('',*,*,#385,.F.);
#599=ORIENTED_EDGE('',*,*,#405,.F.);
#600=ORIENTED_EDGE('',*,*,#407,.F.);
#601=ORIENTED_EDGE('',*,*,#409,.F.);
#602=ORIENTED_EDGE('',*,*,#411,.F.);
#603=ORIENTED_EDGE('',*,*,#413,.F.);
#604=ORIENTED_EDGE('',*,*,#414,.F.);
#605=ORIENTED_EDGE('',*,*,#425,.T.);
#606=ORIENTED_EDGE('',*,*,#423,.T.);
#607=ORIENTED_EDGE('',*,*,#421,.T.);
#608=ORIENTED_EDGE('',*,*,#419,.T.);
#609=PLANE('',#690);
#610=PLANE('',#693);
#611=PLANE('',#696);
#612=PLANE('',#699);
#613=PLANE('',#702);
#614=PLANE('',#703);
#615=PLANE('',#704);
#616=PLANE('',#705);
#617=PLANE('',#710);
#618=PLANE('',#714);
#619=PLANE('',#718);
#620=PLANE('',#722);
#621=PLANE('',#726);
#622=PLANE('',#730);
#623=PLANE('',#731);
#624=PLANE('',#732);
#625=PLANE('',#733);
#626=PLANE('',#734);
#627=PLANE('',#735);
#628=PLANE('',#736);
#629=PLANE('',#737);
#630=PLANE('',#750);
#631=PLANE('',#751);
#632=PLANE('',#752);
#633=PLANE('',#753);
#634=PLANE('',#754);
#635=PLANE('',#755);
#636=ADVANCED_FACE('',(#167,#150),#609,.T.);
#637=ADVANCED_FACE('',(#168,#151),#610,.T.);
#638=ADVANCED_FACE('',(#169,#152),#611,.T.);
#639=ADVANCED_FACE('',(#170,#153),#612,.T.);
#640=ADVANCED_FACE('',(#171),#613,.F.);
#641=ADVANCED_FACE('',(#172),#614,.F.);
#642=ADVANCED_FACE('',(#173),#615,.F.);
#643=ADVANCED_FACE('',(#174,#154,#155,#156,#157),#616,.T.);
#644=ADVANCED_FACE('',(#175),#617,.T.);
#645=ADVANCED_FACE('',(#176),#15,.T.);
#646=ADVANCED_FACE('',(#177),#618,.T.);
#647=ADVANCED_FACE('',(#178),#16,.T.);
#648=ADVANCED_FACE('',(#179),#619,.T.);
#649=ADVANCED_FACE('',(#180),#17,.T.);
#650=ADVANCED_FACE('',(#181),#620,.T.);
#651=ADVANCED_FACE('',(#182),#18,.T.);
#652=ADVANCED_FACE('',(#183),#621,.T.);
#653=ADVANCED_FACE('',(#184),#19,.T.);
#654=ADVANCED_FACE('',(#185,#158),#622,.T.);
#655=ADVANCED_FACE('',(#186),#623,.T.);
#656=ADVANCED_FACE('',(#187),#624,.T.);
#657=ADVANCED_FACE('',(#188),#625,.T.);
#658=ADVANCED_FACE('',(#189),#626,.T.);
#659=ADVANCED_FACE('',(#190),#627,.T.);
#660=ADVANCED_FACE('',(#191),#628,.T.);
#661=ADVANCED_FACE('',(#192),#629,.T.);
#662=ADVANCED_FACE('',(#193),#20,.F.);
#663=ADVANCED_FACE('',(#194),#21,.F.);
#664=ADVANCED_FACE('',(#195),#22,.F.);
#665=ADVANCED_FACE('',(#196),#23,.F.);
#666=ADVANCED_FACE('',(#197),#24,.F.);
#667=ADVANCED_FACE('',(#198),#25,.F.);
#668=ADVANCED_FACE('',(#199),#26,.F.);
#669=ADVANCED_FACE('',(#200),#27,.F.);
#670=ADVANCED_FACE('',(#201),#630,.T.);
#671=ADVANCED_FACE('',(#202),#631,.T.);
#672=ADVANCED_FACE('',(#203),#632,.T.);
#673=ADVANCED_FACE('',(#204),#633,.T.);
#674=ADVANCED_FACE('',(#205,#159,#160,#161,#162),#634,.T.);
#675=ADVANCED_FACE('',(#206,#163,#164,#165,#166),#635,.F.);
#676=CLOSED_SHELL('',(#636,#637,#638,#639,#640,#641,#642,#643,#644,#645,
#646,#647,#648,#649,#650,#651,#652,#653,#654,#655,#656,#657,#658,#659,#660,
#661,#662,#663,#664,#665,#666,#667,#668,#669,#670,#671,#672,#673,#674,#675));
#677=DERIVED_UNIT_ELEMENT(#679,1.);
#678=DERIVED_UNIT_ELEMENT(#1142,-3.);
#679=(
MASS_UNIT()
NAMED_UNIT(*)
SI_UNIT(.KILO.,.GRAM.)
);
#680=DERIVED_UNIT((#677,#678));
#681=MEASURE_REPRESENTATION_ITEM('density measure',
POSITIVE_RATIO_MEASURE(7850.),#680);
#682=PROPERTY_DEFINITION_REPRESENTATION(#687,#684);
#683=PROPERTY_DEFINITION_REPRESENTATION(#688,#685);
#684=REPRESENTATION('material name',(#686),#1139);
#685=REPRESENTATION('density',(#681),#1139);
#686=DESCRIPTIVE_REPRESENTATION_ITEM('Steel','Steel');
#687=PROPERTY_DEFINITION('material property','material name',#1149);
#688=PROPERTY_DEFINITION('material property','density of part',#1149);
#689=AXIS2_PLACEMENT_3D('',#951,#756,#757);
#690=AXIS2_PLACEMENT_3D('',#952,#758,#759);
#691=AXIS2_PLACEMENT_3D('',#954,#760,#761);
#692=AXIS2_PLACEMENT_3D('',#956,#762,#763);
#693=AXIS2_PLACEMENT_3D('',#957,#764,#765);
#694=AXIS2_PLACEMENT_3D('',#959,#766,#767);
#695=AXIS2_PLACEMENT_3D('',#961,#768,#769);
#696=AXIS2_PLACEMENT_3D('',#962,#770,#771);
#697=AXIS2_PLACEMENT_3D('',#964,#772,#773);
#698=AXIS2_PLACEMENT_3D('',#966,#774,#775);
#699=AXIS2_PLACEMENT_3D('',#967,#776,#777);
#700=AXIS2_PLACEMENT_3D('',#969,#778,#779);
#701=AXIS2_PLACEMENT_3D('',#971,#780,#781);
#702=AXIS2_PLACEMENT_3D('',#972,#782,#783);
#703=AXIS2_PLACEMENT_3D('',#981,#788,#789);
#704=AXIS2_PLACEMENT_3D('',#987,#793,#794);
#705=AXIS2_PLACEMENT_3D('',#993,#798,#799);
#706=AXIS2_PLACEMENT_3D('',#1021,#814,#815);
#707=AXIS2_PLACEMENT_3D('',#1023,#816,#817);
#708=AXIS2_PLACEMENT_3D('',#1025,#818,#819);
#709=AXIS2_PLACEMENT_3D('',#1027,#820,#821);
#710=AXIS2_PLACEMENT_3D('',#1028,#822,#823);
#711=AXIS2_PLACEMENT_3D('',#1034,#827,#828);
#712=AXIS2_PLACEMENT_3D('',#1036,#829,#830);
#713=AXIS2_PLACEMENT_3D('',#1039,#832,#833);
#714=AXIS2_PLACEMENT_3D('',#1040,#834,#835);
#715=AXIS2_PLACEMENT_3D('',#1041,#836,#837);
#716=AXIS2_PLACEMENT_3D('',#1043,#838,#839);
#717=AXIS2_PLACEMENT_3D('',#1046,#841,#842);
#718=AXIS2_PLACEMENT_3D('',#1047,#843,#844);
#719=AXIS2_PLACEMENT_3D('',#1048,#845,#846);
#720=AXIS2_PLACEMENT_3D('',#1050,#847,#848);
#721=AXIS2_PLACEMENT_3D('',#1053,#850,#851);
#722=AXIS2_PLACEMENT_3D('',#1054,#852,#853);
#723=AXIS2_PLACEMENT_3D('',#1055,#854,#855);
#724=AXIS2_PLACEMENT_3D('',#1057,#856,#857);
#725=AXIS2_PLACEMENT_3D('',#1060,#859,#860);
#726=AXIS2_PLACEMENT_3D('',#1061,#861,#862);
#727=AXIS2_PLACEMENT_3D('',#1062,#863,#864);
#728=AXIS2_PLACEMENT_3D('',#1064,#865,#866);
#729=AXIS2_PLACEMENT_3D('',#1067,#868,#869);
#730=AXIS2_PLACEMENT_3D('',#1068,#870,#871);
#731=AXIS2_PLACEMENT_3D('',#1069,#872,#873);
#732=AXIS2_PLACEMENT_3D('',#1073,#876,#877);
#733=AXIS2_PLACEMENT_3D('',#1077,#880,#881);
#734=AXIS2_PLACEMENT_3D('',#1081,#884,#885);
#735=AXIS2_PLACEMENT_3D('',#1085,#888,#889);
#736=AXIS2_PLACEMENT_3D('',#1089,#892,#893);
#737=AXIS2_PLACEMENT_3D('',#1093,#896,#897);
#738=AXIS2_PLACEMENT_3D('',#1095,#899,#900);
#739=AXIS2_PLACEMENT_3D('',#1097,#902,#903);
#740=AXIS2_PLACEMENT_3D('',#1099,#905,#906);
#741=AXIS2_PLACEMENT_3D('',#1101,#908,#909);
#742=AXIS2_PLACEMENT_3D('',#1103,#911,#912);
#743=AXIS2_PLACEMENT_3D('',#1105,#913,#914);
#744=AXIS2_PLACEMENT_3D('',#1107,#916,#917);
#745=AXIS2_PLACEMENT_3D('',#1109,#918,#919);
#746=AXIS2_PLACEMENT_3D('',#1111,#921,#922);
#747=AXIS2_PLACEMENT_3D('',#1113,#923,#924);
#748=AXIS2_PLACEMENT_3D('',#1115,#926,#927);
#749=AXIS2_PLACEMENT_3D('',#1117,#928,#929);
#750=AXIS2_PLACEMENT_3D('',#1119,#931,#932);
#751=AXIS2_PLACEMENT_3D('',#1125,#936,#937);
#752=AXIS2_PLACEMENT_3D('',#1129,#940,#941);
#753=AXIS2_PLACEMENT_3D('',#1133,#944,#945);
#754=AXIS2_PLACEMENT_3D('',#1135,#947,#948);
#755=AXIS2_PLACEMENT_3D('',#1136,#949,#950);
#756=DIRECTION('axis',(0.,0.,1.));
#757=DIRECTION('refdir',(1.,0.,0.));
#758=DIRECTION('center_axis',(0.,0.,-1.));
#759=DIRECTION('ref_axis',(1.,0.,0.));
#760=DIRECTION('center_axis',(0.,0.,1.));
#761=DIRECTION('ref_axis',(1.,0.,0.));
#762=DIRECTION('center_axis',(0.,0.,-1.));
#763=DIRECTION('ref_axis',(1.,0.,0.));
#764=DIRECTION('center_axis',(0.,0.,-1.));
#765=DIRECTION('ref_axis',(1.,0.,0.));
#766=DIRECTION('center_axis',(0.,0.,1.));
#767=DIRECTION('ref_axis',(1.,0.,0.));
#768=DIRECTION('center_axis',(0.,0.,-1.));
#769=DIRECTION('ref_axis',(1.,0.,0.));
#770=DIRECTION('center_axis',(0.,0.,-1.));
#771=DIRECTION('ref_axis',(1.,0.,0.));
#772=DIRECTION('center_axis',(0.,0.,1.));
#773=DIRECTION('ref_axis',(1.,0.,0.));
#774=DIRECTION('center_axis',(0.,0.,-1.));
#775=DIRECTION('ref_axis',(1.,0.,0.));
#776=DIRECTION('center_axis',(0.,0.,-1.));
#777=DIRECTION('ref_axis',(1.,0.,0.));
#778=DIRECTION('center_axis',(0.,0.,1.));
#779=DIRECTION('ref_axis',(1.,0.,0.));
#780=DIRECTION('center_axis',(0.,0.,-1.));
#781=DIRECTION('ref_axis',(1.,0.,0.));
#782=DIRECTION('center_axis',(1.,0.,0.));
#783=DIRECTION('ref_axis',(0.,0.,1.));
#784=DIRECTION('',(0.,0.,1.));
#785=DIRECTION('',(0.,-1.,0.));
#786=DIRECTION('',(0.,0.,-1.));
#787=DIRECTION('',(0.,-1.,0.));
#788=DIRECTION('center_axis',(0.,0.,-1.));
#789=DIRECTION('ref_axis',(1.,0.,0.));
#790=DIRECTION('',(1.,0.,0.));
#791=DIRECTION('',(0.,-1.,0.));
#792=DIRECTION('',(-1.,0.,0.));
#793=DIRECTION('center_axis',(-1.,0.,0.));
#794=DIRECTION('ref_axis',(0.,0.,-1.));
#795=DIRECTION('',(0.,0.,-1.));
#796=DIRECTION('',(0.,1.,0.));
#797=DIRECTION('',(0.,0.,1.));
#798=DIRECTION('center_axis',(0.,0.,1.));
#799=DIRECTION('ref_axis',(1.,0.,0.));
#800=DIRECTION('',(-1.,0.,0.));
#801=DIRECTION('',(0.707106781186549,0.707106781186546,0.));
#802=DIRECTION('',(0.,-1.,0.));
#803=DIRECTION('',(-0.707106781186547,0.707106781186548,0.));
#804=DIRECTION('',(1.,0.,0.));
#805=DIRECTION('',(-0.707106781186546,-0.707106781186549,0.));
#806=DIRECTION('',(0.,1.,0.));
#807=DIRECTION('',(0.707106781186548,-0.707106781186548,0.));
#808=DIRECTION('',(-1.,0.,0.));
#809=DIRECTION('',(1.,0.,0.));
#810=DIRECTION('',(0.,-1.,0.));
#811=DIRECTION('',(-1.,0.,0.));
#812=DIRECTION('',(0.,1.,0.));
#813=DIRECTION('',(1.,0.,0.));
#814=DIRECTION('center_axis',(0.,0.,-1.));
#815=DIRECTION('ref_axis',(1.,0.,0.));
#816=DIRECTION('center_axis',(0.,0.,-1.));
#817=DIRECTION('ref_axis',(1.,0.,0.));
#818=DIRECTION('center_axis',(0.,0.,-1.));
#819=DIRECTION('ref_axis',(1.,0.,0.));
#820=DIRECTION('center_axis',(0.,0.,-1.));
#821=DIRECTION('ref_axis',(1.,0.,0.));
#822=DIRECTION('center_axis',(0.,1.,0.));
#823=DIRECTION('ref_axis',(-1.,0.,0.));
#824=DIRECTION('',(0.,0.,1.));
#825=DIRECTION('',(-1.,0.,0.));
#826=DIRECTION('',(0.,0.,-1.));
#827=DIRECTION('center_axis',(0.,0.,1.));
#828=DIRECTION('ref_axis',(-1.,0.,0.));
#829=DIRECTION('center_axis',(0.,0.,1.));
#830=DIRECTION('ref_axis',(-1.,0.,0.));
#831=DIRECTION('',(0.,0.,-1.));
#832=DIRECTION('center_axis',(0.,0.,-1.));
#833=DIRECTION('ref_axis',(-1.,0.,0.));
#834=DIRECTION('center_axis',(0.,0.,1.));
#835=DIRECTION('ref_axis',(-1.,0.,0.));
#836=DIRECTION('center_axis',(0.,0.,1.));
#837=DIRECTION('ref_axis',(-1.,0.,0.));
#838=DIRECTION('center_axis',(0.,0.,1.));
#839=DIRECTION('ref_axis',(-1.,0.,0.));
#840=DIRECTION('',(0.,0.,-1.));
#841=DIRECTION('center_axis',(0.,0.,-1.));
#842=DIRECTION('ref_axis',(-1.,0.,0.));
#843=DIRECTION('center_axis',(0.,0.,1.));
#844=DIRECTION('ref_axis',(-1.,0.,0.));
#845=DIRECTION('center_axis',(0.,0.,1.));
#846=DIRECTION('ref_axis',(-1.,0.,0.));
#847=DIRECTION('center_axis',(0.,0.,1.));
#848=DIRECTION('ref_axis',(-1.,0.,0.));
#849=DIRECTION('',(0.,0.,-1.));
#850=DIRECTION('center_axis',(0.,0.,-1.));
#851=DIRECTION('ref_axis',(-1.,0.,0.));
#852=DIRECTION('center_axis',(0.,0.,1.));
#853=DIRECTION('ref_axis',(-1.,0.,0.));
#854=DIRECTION('center_axis',(0.,0.,1.));
#855=DIRECTION('ref_axis',(-1.,0.,0.));
#856=DIRECTION('center_axis',(0.,0.,1.));
#857=DIRECTION('ref_axis',(-1.,0.,0.));
#858=DIRECTION('',(0.,0.,-1.));
#859=DIRECTION('center_axis',(0.,0.,-1.));
#860=DIRECTION('ref_axis',(-1.,0.,0.));
#861=DIRECTION('center_axis',(0.,0.,1.));
#862=DIRECTION('ref_axis',(-1.,0.,0.));
#863=DIRECTION('center_axis',(0.,0.,1.));
#864=DIRECTION('ref_axis',(-1.,0.,0.));
#865=DIRECTION('center_axis',(0.,0.,1.));
#866=DIRECTION('ref_axis',(-1.,0.,0.));
#867=DIRECTION('',(0.,0.,-1.));
#868=DIRECTION('center_axis',(0.,0.,-1.));
#869=DIRECTION('ref_axis',(-1.,0.,0.));
#870=DIRECTION('center_axis',(0.,0.,1.));
#871=DIRECTION('ref_axis',(-1.,0.,0.));
#872=DIRECTION('center_axis',(-0.707106781186546,0.707106781186549,0.));
#873=DIRECTION('ref_axis',(0.,0.,1.));
#874=DIRECTION('',(-0.707106781186549,-0.707106781186546,0.));
#875=DIRECTION('',(0.,0.,1.));
#876=DIRECTION('center_axis',(0.707106781186548,0.707106781186548,0.));
#877=DIRECTION('ref_axis',(0.,0.,-1.));
#878=DIRECTION('',(0.,0.,-1.));
#879=DIRECTION('',(-0.707106781186548,0.707106781186548,0.));
#880=DIRECTION('center_axis',(1.,0.,0.));
#881=DIRECTION('ref_axis',(0.,1.,0.));
#882=DIRECTION('',(0.,0.,1.));
#883=DIRECTION('',(0.,1.,0.));
#884=DIRECTION('center_axis',(0.707106781186549,-0.707106781186546,0.));
#885=DIRECTION('ref_axis',(0.,0.,-1.));
#886=DIRECTION('',(0.,0.,-1.));
#887=DIRECTION('',(0.707106781186546,0.707106781186549,0.));
#888=DIRECTION('center_axis',(0.,-1.,0.));
#889=DIRECTION('ref_axis',(1.,0.,0.));
#890=DIRECTION('',(0.,0.,1.));
#891=DIRECTION('',(1.,0.,0.));
#892=DIRECTION('center_axis',(-0.707106781186548,-0.707106781186547,0.));
#893=DIRECTION('ref_axis',(0.,0.,1.));
#894=DIRECTION('',(0.,0.,-1.));
#895=DIRECTION('',(0.707106781186547,-0.707106781186548,0.));
#896=DIRECTION('center_axis',(-1.,-5.83667298091776E-17,0.));
#897=DIRECTION('ref_axis',(5.83667298091776E-17,-1.,0.));
#898=DIRECTION('',(5.83667298091776E-17,-1.,0.));
#899=DIRECTION('center_axis',(0.,0.,1.));
#900=DIRECTION('ref_axis',(1.,0.,0.));
#901=DIRECTION('',(0.,0.,1.));
#902=DIRECTION('center_axis',(0.,0.,1.));
#903=DIRECTION('ref_axis',(1.,0.,0.));
#904=DIRECTION('',(0.,0.,1.));
#905=DIRECTION('center_axis',(0.,0.,1.));
#906=DIRECTION('ref_axis',(1.,0.,0.));
#907=DIRECTION('',(0.,0.,1.));
#908=DIRECTION('center_axis',(0.,0.,1.));
#909=DIRECTION('ref_axis',(1.,0.,0.));
#910=DIRECTION('',(0.,0.,1.));
#911=DIRECTION('center_axis',(0.,0.,1.));
#912=DIRECTION('ref_axis',(1.,0.,0.));
#913=DIRECTION('center_axis',(0.,0.,1.));
#914=DIRECTION('ref_axis',(1.,0.,0.));
#915=DIRECTION('',(0.,0.,1.));
#916=DIRECTION('center_axis',(0.,0.,1.));
#917=DIRECTION('ref_axis',(1.,0.,0.));
#918=DIRECTION('center_axis',(0.,0.,1.));
#919=DIRECTION('ref_axis',(1.,0.,0.));
#920=DIRECTION('',(0.,0.,1.));
#921=DIRECTION('center_axis',(0.,0.,1.));
#922=DIRECTION('ref_axis',(1.,0.,0.));
#923=DIRECTION('center_axis',(0.,0.,1.));
#924=DIRECTION('ref_axis',(1.,0.,0.));
#925=DIRECTION('',(0.,0.,1.));
#926=DIRECTION('center_axis',(0.,0.,1.));
#927=DIRECTION('ref_axis',(1.,0.,0.));
#928=DIRECTION('center_axis',(0.,0.,1.));
#929=DIRECTION('ref_axis',(1.,0.,0.));
#930=DIRECTION('',(0.,0.,1.));
#931=DIRECTION('center_axis',(0.,-1.,0.));
#932=DIRECTION('ref_axis',(1.,0.,0.));
#933=DIRECTION('',(0.,0.,1.));
#934=DIRECTION('',(-1.,0.,0.));
#935=DIRECTION('',(0.,0.,1.));
#936=DIRECTION('center_axis',(1.,0.,0.));
#937=DIRECTION('ref_axis',(0.,1.,0.));
#938=DIRECTION('',(0.,-1.,0.));
#939=DIRECTION('',(0.,0.,1.));
#940=DIRECTION('center_axis',(0.,1.,0.));
#941=DIRECTION('ref_axis',(-1.,0.,0.));
#942=DIRECTION('',(1.,0.,0.));
#943=DIRECTION('',(0.,0.,1.));
#944=DIRECTION('center_axis',(-1.,0.,0.));
#945=DIRECTION('ref_axis',(0.,-1.,0.));
#946=DIRECTION('',(0.,1.,0.));
#947=DIRECTION('center_axis',(0.,0.,1.));
#948=DIRECTION('ref_axis',(1.,0.,0.));
#949=DIRECTION('center_axis',(0.,0.,1.));
#950=DIRECTION('ref_axis',(1.,0.,0.));
#951=CARTESIAN_POINT('',(0.,0.,0.));
#952=CARTESIAN_POINT('Origin',(5.,104.000000737607,4.));
#953=CARTESIAN_POINT('',(1.49999999999999,104.000000737607,4.));
#954=CARTESIAN_POINT('Origin',(5.,104.000000737607,4.));
#955=CARTESIAN_POINT('',(3.6,104.000000737607,4.));
#956=CARTESIAN_POINT('Origin',(5.,104.000000737607,4.));
#957=CARTESIAN_POINT('Origin',(83.0000012367964,5.00000007450581,4.));
#958=CARTESIAN_POINT('',(79.5000012367964,5.00000007450581,4.));
#959=CARTESIAN_POINT('Origin',(83.0000012367964,5.00000007450581,4.));
#960=CARTESIAN_POINT('',(81.6000012367964,5.00000007450581,4.));
#961=CARTESIAN_POINT('Origin',(83.0000012367964,5.00000007450581,4.));
#962=CARTESIAN_POINT('Origin',(83.0000013113022,104.000000737607,4.));
#963=CARTESIAN_POINT('',(79.5000013113022,104.000000737607,4.));
#964=CARTESIAN_POINT('Origin',(83.0000013113022,104.000000737607,4.));
#965=CARTESIAN_POINT('',(81.6000013113022,104.000000737607,4.));
#966=CARTESIAN_POINT('Origin',(83.0000013113022,104.000000737607,4.));
#967=CARTESIAN_POINT('Origin',(5.00000007450581,5.00000007450581,4.));
#968=CARTESIAN_POINT('',(1.50000007450581,5.00000007450581,4.));
#969=CARTESIAN_POINT('Origin',(5.00000007450581,5.00000007450581,4.));
#970=CARTESIAN_POINT('',(3.60000007450581,5.00000007450581,4.));
#971=CARTESIAN_POINT('Origin',(5.00000007450581,5.00000007450581,4.));
#972=CARTESIAN_POINT('Origin',(28.811,109.,11.045));
#973=CARTESIAN_POINT('',(28.811,109.,11.045));
#974=CARTESIAN_POINT('',(28.811,109.,13.));
#975=CARTESIAN_POINT('',(28.811,109.,5.5225));
#976=CARTESIAN_POINT('',(28.811,99.,11.045));
#977=CARTESIAN_POINT('',(28.811,109.,11.045));
#978=CARTESIAN_POINT('',(28.811,99.,13.));
#979=CARTESIAN_POINT('',(28.811,99.,7.0225));
#980=CARTESIAN_POINT('',(28.811,81.75,13.));
#981=CARTESIAN_POINT('Origin',(16.811,109.,11.045));
#982=CARTESIAN_POINT('',(16.811,109.,11.045));
#983=CARTESIAN_POINT('',(52.4055,109.,11.045));
#984=CARTESIAN_POINT('',(16.811,99.,11.045));
#985=CARTESIAN_POINT('',(16.811,109.,11.045));
#986=CARTESIAN_POINT('',(13.4055,99.,11.045));
#987=CARTESIAN_POINT('Origin',(16.811,109.,13.));
#988=CARTESIAN_POINT('',(16.811,109.,13.));
#989=CARTESIAN_POINT('',(16.811,109.,6.5));
#990=CARTESIAN_POINT('',(16.811,99.,13.));
#991=CARTESIAN_POINT('',(16.811,81.75,13.));
#992=CARTESIAN_POINT('',(16.811,99.,8.));
#993=CARTESIAN_POINT('Origin',(44.,54.5,13.));
#994=CARTESIAN_POINT('',(1.99999999999999,109.,13.));
#995=CARTESIAN_POINT('',(78.,109.,13.));
#996=CARTESIAN_POINT('',(-6.36197354920036E-15,107.,13.));
#997=CARTESIAN_POINT('',(-1.62499999999997,105.375,13.));
#998=CARTESIAN_POINT('',(-6.36197354920036E-15,2.,13.));
#999=CARTESIAN_POINT('',(-6.36197354920036E-15,0.,13.));
#1000=CARTESIAN_POINT('',(2.,0.,13.));
#1001=CARTESIAN_POINT('',(-1.62500000000001,3.62500000000001,13.));
#1002=CARTESIAN_POINT('',(86.,0.,13.));
#1003=CARTESIAN_POINT('',(0.,0.,13.));
#1004=CARTESIAN_POINT('',(88.,2.,13.));
#1005=CARTESIAN_POINT('',(89.6250000000001,3.62500000000005,13.));
#1006=CARTESIAN_POINT('',(88.,107.,13.));
#1007=CARTESIAN_POINT('',(88.,0.,13.));
#1008=CARTESIAN_POINT('',(86.,109.,13.));
#1009=CARTESIAN_POINT('',(89.625,105.375,13.));
#1010=CARTESIAN_POINT('',(78.,109.,13.));
#1011=CARTESIAN_POINT('',(78.,99.,13.));
#1012=CARTESIAN_POINT('',(88.,99.,13.));
#1013=CARTESIAN_POINT('',(78.,10.,13.));
#1014=CARTESIAN_POINT('',(78.,0.,13.));
#1015=CARTESIAN_POINT('',(9.99999999999999,10.,13.));
#1016=CARTESIAN_POINT('',(88.,10.,13.));
#1017=CARTESIAN_POINT('',(9.99999999999999,99.,13.));
#1018=CARTESIAN_POINT('',(9.99999999999999,109.,13.));
#1019=CARTESIAN_POINT('',(88.,99.,13.));
#1020=CARTESIAN_POINT('',(81.6000012367964,5.00000007450581,13.));
#1021=CARTESIAN_POINT('Origin',(83.0000012367964,5.00000007450581,13.));
#1022=CARTESIAN_POINT('',(3.6,104.000000737607,13.));
#1023=CARTESIAN_POINT('Origin',(5.,104.000000737607,13.));
#1024=CARTESIAN_POINT('',(81.6000013113022,104.000000737607,13.));
#1025=CARTESIAN_POINT('Origin',(83.0000013113022,104.000000737607,13.));
#1026=CARTESIAN_POINT('',(3.60000007450581,5.00000007450581,13.));
#1027=CARTESIAN_POINT('Origin',(5.00000007450581,5.00000007450581,13.));
#1028=CARTESIAN_POINT('Origin',(88.,109.,0.));
#1029=CARTESIAN_POINT('',(86.,109.,0.));
#1030=CARTESIAN_POINT('',(86.,109.,0.));
#1031=CARTESIAN_POINT('',(1.99999999999999,109.,0.));
#1032=CARTESIAN_POINT('',(88.,109.,0.));
#1033=CARTESIAN_POINT('',(1.99999999999999,109.,0.));
#1034=CARTESIAN_POINT('Origin',(46.8139999999998,61.678,9.5));
#1035=CARTESIAN_POINT('',(48.3139999999998,61.678,13.));
#1036=CARTESIAN_POINT('Origin',(46.8139999999998,61.678,13.));
#1037=CARTESIAN_POINT('',(48.3139999999998,61.678,9.5));
#1038=CARTESIAN_POINT('',(48.3139999999998,61.678,9.5));
#1039=CARTESIAN_POINT('Origin',(46.8139999999998,61.678,9.5));
#1040=CARTESIAN_POINT('Origin',(46.8139999999998,61.678,13.));
#1041=CARTESIAN_POINT('Origin',(16.0000002384186,17.0000002533197,3.));
#1042=CARTESIAN_POINT('',(19.5000002384186,17.0000002533197,9.5));
#1043=CARTESIAN_POINT('Origin',(16.0000002384186,17.0000002533197,9.5));
#1044=CARTESIAN_POINT('',(19.5000002384186,17.0000002533197,3.));
#1045=CARTESIAN_POINT('',(19.5000002384186,17.0000002533197,3.));
#1046=CARTESIAN_POINT('Origin',(16.0000002384186,17.0000002533197,3.));
#1047=CARTESIAN_POINT('Origin',(16.0000002384186,17.0000002533197,9.5));
#1048=CARTESIAN_POINT('Origin',(73.0000010877848,18.0000002682209,3.));
#1049=CARTESIAN_POINT('',(76.5000010877848,18.0000002682209,9.5));
#1050=CARTESIAN_POINT('Origin',(73.0000010877848,18.0000002682209,9.5));
#1051=CARTESIAN_POINT('',(76.5000010877848,18.0000002682209,3.));
#1052=CARTESIAN_POINT('',(76.5000010877848,18.0000002682209,3.));
#1053=CARTESIAN_POINT('Origin',(73.0000010877848,18.0000002682209,3.));
#1054=CARTESIAN_POINT('Origin',(73.0000010877848,18.0000002682209,9.5));
#1055=CARTESIAN_POINT('Origin',(70.0000010430813,92.0000013709068,3.));
#1056=CARTESIAN_POINT('',(73.5000010430813,92.0000013709068,9.5));
#1057=CARTESIAN_POINT('Origin',(70.0000010430813,92.0000013709068,9.5));
#1058=CARTESIAN_POINT('',(73.5000010430813,92.0000013709068,3.));
#1059=CARTESIAN_POINT('',(73.5000010430813,92.0000013709068,3.));
#1060=CARTESIAN_POINT('Origin',(70.0000010430813,92.0000013709068,3.));
#1061=CARTESIAN_POINT('Origin',(70.0000010430813,92.0000013709068,9.5));
#1062=CARTESIAN_POINT('Origin',(46.8139999999998,61.678,3.));
#1063=CARTESIAN_POINT('',(49.8139999999998,61.678,9.5));
#1064=CARTESIAN_POINT('Origin',(46.8139999999998,61.678,9.5));
#1065=CARTESIAN_POINT('',(49.8139999999998,61.678,3.));
#1066=CARTESIAN_POINT('',(49.8139999999998,61.678,3.));
#1067=CARTESIAN_POINT('Origin',(46.8139999999998,61.678,3.));
#1068=CARTESIAN_POINT('Origin',(46.8139999999998,61.678,9.5));
#1069=CARTESIAN_POINT('Origin',(0.999999999999993,108.,0.));
#1070=CARTESIAN_POINT('',(-6.245240089582E-15,107.,0.));
#1071=CARTESIAN_POINT('',(-1.62499999999997,105.375,0.));
#1072=CARTESIAN_POINT('',(-6.38378239159465E-15,107.,0.));
#1073=CARTESIAN_POINT('Origin',(87.,108.,0.));
#1074=CARTESIAN_POINT('',(88.,107.,0.));
#1075=CARTESIAN_POINT('',(88.,107.,0.));
#1076=CARTESIAN_POINT('',(89.625,105.375,0.));
#1077=CARTESIAN_POINT('Origin',(88.,0.,0.));
#1078=CARTESIAN_POINT('',(88.,2.,0.));
#1079=CARTESIAN_POINT('',(88.,2.,0.));
#1080=CARTESIAN_POINT('',(88.,0.,0.));
#1081=CARTESIAN_POINT('Origin',(87.,1.,0.));
#1082=CARTESIAN_POINT('',(86.,0.,0.));
#1083=CARTESIAN_POINT('',(86.,0.,0.));
#1084=CARTESIAN_POINT('',(89.6250000000001,3.62500000000005,0.));
#1085=CARTESIAN_POINT('Origin',(9.86076131526265E-31,0.,0.));
#1086=CARTESIAN_POINT('',(2.,0.,0.));
#1087=CARTESIAN_POINT('',(2.,0.,0.));
#1088=CARTESIAN_POINT('',(0.,0.,0.));
#1089=CARTESIAN_POINT('Origin',(1.,1.,0.));
#1090=CARTESIAN_POINT('',(-1.16733459618356E-16,2.00000000000001,0.));
#1091=CARTESIAN_POINT('',(0.,2.,0.));
#1092=CARTESIAN_POINT('',(-1.62500000000001,3.62500000000001,0.));
#1093=CARTESIAN_POINT('Origin',(-6.36197354920036E-15,109.,0.));
#1094=CARTESIAN_POINT('',(-6.36197354920036E-15,109.,0.));
#1095=CARTESIAN_POINT('Origin',(83.0000012367964,5.00000007450581,0.));
#1096=CARTESIAN_POINT('',(81.6000012367964,5.00000007450581,0.));
#1097=CARTESIAN_POINT('Origin',(5.,104.000000737607,0.));
#1098=CARTESIAN_POINT('',(3.6,104.000000737607,0.));
#1099=CARTESIAN_POINT('Origin',(83.0000013113022,104.000000737607,0.));
#1100=CARTESIAN_POINT('',(81.6000013113022,104.000000737607,0.));
#1101=CARTESIAN_POINT('Origin',(5.00000007450581,5.00000007450581,0.));
#1102=CARTESIAN_POINT('',(3.60000007450581,5.00000007450581,0.));
#1103=CARTESIAN_POINT('Origin',(83.0000013113022,104.000000737607,0.));
#1104=CARTESIAN_POINT('',(79.5000013113022,104.000000737607,0.));
#1105=CARTESIAN_POINT('Origin',(83.0000013113022,104.000000737607,0.));
#1106=CARTESIAN_POINT('',(79.5000013113022,104.000000737607,0.));
#1107=CARTESIAN_POINT('Origin',(5.,104.000000737607,0.));
#1108=CARTESIAN_POINT('',(1.49999999999999,104.000000737607,0.));
#1109=CARTESIAN_POINT('Origin',(5.,104.000000737607,0.));
#1110=CARTESIAN_POINT('',(1.49999999999999,104.000000737607,0.));
#1111=CARTESIAN_POINT('Origin',(83.0000012367964,5.00000007450581,0.));
#1112=CARTESIAN_POINT('',(79.5000012367964,5.00000007450581,0.));
#1113=CARTESIAN_POINT('Origin',(83.0000012367964,5.00000007450581,0.));
#1114=CARTESIAN_POINT('',(79.5000012367964,5.00000007450581,0.));
#1115=CARTESIAN_POINT('Origin',(5.00000007450581,5.00000007450581,0.));
#1116=CARTESIAN_POINT('',(1.50000007450581,5.00000007450581,0.));
#1117=CARTESIAN_POINT('Origin',(5.00000007450581,5.00000007450581,0.));
#1118=CARTESIAN_POINT('',(1.50000007450581,5.00000007450581,0.));
#1119=CARTESIAN_POINT('Origin',(9.99999999999999,99.,3.));
#1120=CARTESIAN_POINT('',(9.99999999999999,99.,3.));
#1121=CARTESIAN_POINT('',(9.99999999999999,99.,3.));
#1122=CARTESIAN_POINT('',(78.,99.,3.));
#1123=CARTESIAN_POINT('',(27.,99.,3.));
#1124=CARTESIAN_POINT('',(78.,99.,3.));
#1125=CARTESIAN_POINT('Origin',(9.99999999999999,10.,3.));
#1126=CARTESIAN_POINT('',(9.99999999999999,10.,3.));
#1127=CARTESIAN_POINT('',(9.99999999999999,32.25,3.));
#1128=CARTESIAN_POINT('',(9.99999999999999,10.,3.));
#1129=CARTESIAN_POINT('Origin',(78.,10.,3.));
#1130=CARTESIAN_POINT('',(78.,10.,3.));
#1131=CARTESIAN_POINT('',(61.,10.,3.));
#1132=CARTESIAN_POINT('',(78.,10.,3.));
#1133=CARTESIAN_POINT('Origin',(78.,99.,3.));
#1134=CARTESIAN_POINT('',(78.,76.75,3.));
#1135=CARTESIAN_POINT('Origin',(44.,54.5,3.));
#1136=CARTESIAN_POINT('Origin',(44.,54.5,0.));
#1137=UNCERTAINTY_MEASURE_WITH_UNIT(LENGTH_MEASURE(0.01),#1141,
'DISTANCE_ACCURACY_VALUE',
'Maximum model space distance between geometric entities at asserted c
onnectivities');
#1138=UNCERTAINTY_MEASURE_WITH_UNIT(LENGTH_MEASURE(0.01),#1141,
'DISTANCE_ACCURACY_VALUE',
'Maximum model space distance between geometric entities at asserted c
onnectivities');
#1139=(
GEOMETRIC_REPRESENTATION_CONTEXT(3)
GLOBAL_UNCERTAINTY_ASSIGNED_CONTEXT((#1137))
GLOBAL_UNIT_ASSIGNED_CONTEXT((#1141,#1143,#1144))
REPRESENTATION_CONTEXT('','3D')
);
#1140=(
GEOMETRIC_REPRESENTATION_CONTEXT(3)
GLOBAL_UNCERTAINTY_ASSIGNED_CONTEXT((#1138))
GLOBAL_UNIT_ASSIGNED_CONTEXT((#1141,#1143,#1144))
REPRESENTATION_CONTEXT('','3D')
);
#1141=(
LENGTH_UNIT()
NAMED_UNIT(*)
SI_UNIT(.MILLI.,.METRE.)
);
#1142=(
LENGTH_UNIT()
NAMED_UNIT(*)
SI_UNIT($,.METRE.)
);
#1143=(
NAMED_UNIT(*)
PLANE_ANGLE_UNIT()
SI_UNIT($,.RADIAN.)
);
#1144=(
NAMED_UNIT(*)
SI_UNIT($,.STERADIAN.)
SOLID_ANGLE_UNIT()
);
#1145=SHAPE_DEFINITION_REPRESENTATION(#1146,#1147);
#1146=PRODUCT_DEFINITION_SHAPE('',$,#1149);
#1147=SHAPE_REPRESENTATION('',(#689),#1139);
#1148=PRODUCT_DEFINITION_CONTEXT('part definition',#1153,'design');
#1149=PRODUCT_DEFINITION('2026-06-10-23-28-59-424','Baseplate',#1150,#1148);
#1150=PRODUCT_DEFINITION_FORMATION('',$,#1155);
#1151=PRODUCT_RELATED_PRODUCT_CATEGORY('Baseplate','Baseplate',(#1155));
#1152=APPLICATION_PROTOCOL_DEFINITION('international standard',
'automotive_design',2009,#1153);
#1153=APPLICATION_CONTEXT(
'Core Data for Automotive Mechanical Design Process');
#1154=PRODUCT_CONTEXT('part definition',#1153,'mechanical');
#1155=PRODUCT('2026-06-10-23-28-59-424','Baseplate',$,(#1154));
#1156=PRESENTATION_STYLE_ASSIGNMENT((#1157));
#1157=SURFACE_STYLE_USAGE(.BOTH.,#1158);
#1158=SURFACE_SIDE_STYLE('',(#1159));
#1159=SURFACE_STYLE_FILL_AREA(#1160);
#1160=FILL_AREA_STYLE('Steel - Satin',(#1161));
#1161=FILL_AREA_STYLE_COLOUR('Steel - Satin',#1162);
#1162=COLOUR_RGB('Steel - Satin',0.627450980392157,0.627450980392157,0.627450980392157);
ENDSEC;
END-ISO-10303-21;
