ISO-10303-21;
HEADER;
/* Generated by software containing ST-Developer
 * from STEP Tools, Inc. (www.steptools.com) 
 */

FILE_DESCRIPTION(
/* description */ (''),
/* implementation_level */ '2;1');

FILE_NAME(
/* name */ 'Top.step',
/* time_stamp */ '2026-06-11T12:29:34+02:00',
/* author */ (''),
/* organization */ (''),
/* preprocessor_version */ 'ST-DEVELOPER v20.1',
/* originating_system */ 'Autodesk Translation Framework v15.8.0.0',
/* authorisation */ '');

FILE_SCHEMA (('AUTOMOTIVE_DESIGN { 1 0 10303 214 3 1 1 }'));
ENDSEC;

DATA;
#10=MECHANICAL_DESIGN_GEOMETRIC_PRESENTATION_REPRESENTATION('',(#13),#1842);
#11=SHAPE_REPRESENTATION_RELATIONSHIP('SRR','None',#1848,#12);
#12=ADVANCED_BREP_SHAPE_REPRESENTATION('',(#14),#1841);
#13=STYLED_ITEM('',(#1857),#14);
#14=MANIFOLD_SOLID_BREP('FrontPlate',#1141);
#15=CYLINDRICAL_SURFACE('',#1197,1.39999999999999);
#16=CYLINDRICAL_SURFACE('',#1200,1.40000000000001);
#17=CYLINDRICAL_SURFACE('',#1203,1.4);
#18=CYLINDRICAL_SURFACE('',#1206,1.4);
#19=CYLINDRICAL_SURFACE('',#1217,0.5);
#20=CYLINDRICAL_SURFACE('',#1219,0.499999999999998);
#21=CYLINDRICAL_SURFACE('',#1221,0.499999999999998);
#22=CYLINDRICAL_SURFACE('',#1223,0.5);
#23=CIRCLE('',#1159,0.5);
#24=CIRCLE('',#1160,0.499999999999998);
#25=CIRCLE('',#1161,0.5);
#26=CIRCLE('',#1162,0.499999999999998);
#27=CIRCLE('',#1188,1.39999999999999);
#28=CIRCLE('',#1189,1.40000000000001);
#29=CIRCLE('',#1190,1.4);
#30=CIRCLE('',#1191,1.4);
#31=CIRCLE('',#1192,0.499999999999998);
#32=CIRCLE('',#1193,0.5);
#33=CIRCLE('',#1194,0.499999999999998);
#34=CIRCLE('',#1195,0.5);
#35=CIRCLE('',#1198,1.39999999999999);
#36=CIRCLE('',#1201,1.40000000000001);
#37=CIRCLE('',#1204,1.4);
#38=CIRCLE('',#1207,1.4);
#39=FACE_BOUND('',#122,.T.);
#40=FACE_BOUND('',#132,.T.);
#41=FACE_BOUND('',#133,.T.);
#42=FACE_BOUND('',#159,.T.);
#43=FACE_BOUND('',#160,.T.);
#44=FACE_BOUND('',#161,.T.);
#45=FACE_BOUND('',#162,.T.);
#46=FACE_BOUND('',#163,.T.);
#47=FACE_BOUND('',#164,.T.);
#48=FACE_BOUND('',#165,.T.);
#49=FACE_BOUND('',#178,.T.);
#50=FACE_OUTER_BOUND('',#115,.T.);
#51=FACE_OUTER_BOUND('',#116,.T.);
#52=FACE_OUTER_BOUND('',#117,.T.);
#53=FACE_OUTER_BOUND('',#118,.T.);
#54=FACE_OUTER_BOUND('',#119,.T.);
#55=FACE_OUTER_BOUND('',#120,.T.);
#56=FACE_OUTER_BOUND('',#121,.T.);
#57=FACE_OUTER_BOUND('',#123,.T.);
#58=FACE_OUTER_BOUND('',#124,.T.);
#59=FACE_OUTER_BOUND('',#125,.T.);
#60=FACE_OUTER_BOUND('',#126,.T.);
#61=FACE_OUTER_BOUND('',#127,.T.);
#62=FACE_OUTER_BOUND('',#128,.T.);
#63=FACE_OUTER_BOUND('',#129,.T.);
#64=FACE_OUTER_BOUND('',#130,.T.);
#65=FACE_OUTER_BOUND('',#131,.T.);
#66=FACE_OUTER_BOUND('',#134,.T.);
#67=FACE_OUTER_BOUND('',#135,.T.);
#68=FACE_OUTER_BOUND('',#136,.T.);
#69=FACE_OUTER_BOUND('',#137,.T.);
#70=FACE_OUTER_BOUND('',#138,.T.);
#71=FACE_OUTER_BOUND('',#139,.T.);
#72=FACE_OUTER_BOUND('',#140,.T.);
#73=FACE_OUTER_BOUND('',#141,.T.);
#74=FACE_OUTER_BOUND('',#142,.T.);
#75=FACE_OUTER_BOUND('',#143,.T.);
#76=FACE_OUTER_BOUND('',#144,.T.);
#77=FACE_OUTER_BOUND('',#145,.T.);
#78=FACE_OUTER_BOUND('',#146,.T.);
#79=FACE_OUTER_BOUND('',#147,.T.);
#80=FACE_OUTER_BOUND('',#148,.T.);
#81=FACE_OUTER_BOUND('',#149,.T.);
#82=FACE_OUTER_BOUND('',#150,.T.);
#83=FACE_OUTER_BOUND('',#151,.T.);
#84=FACE_OUTER_BOUND('',#152,.T.);
#85=FACE_OUTER_BOUND('',#153,.T.);
#86=FACE_OUTER_BOUND('',#154,.T.);
#87=FACE_OUTER_BOUND('',#155,.T.);
#88=FACE_OUTER_BOUND('',#156,.T.);
#89=FACE_OUTER_BOUND('',#157,.T.);
#90=FACE_OUTER_BOUND('',#158,.T.);
#91=FACE_OUTER_BOUND('',#166,.T.);
#92=FACE_OUTER_BOUND('',#167,.T.);
#93=FACE_OUTER_BOUND('',#168,.T.);
#94=FACE_OUTER_BOUND('',#169,.T.);
#95=FACE_OUTER_BOUND('',#170,.T.);
#96=FACE_OUTER_BOUND('',#171,.T.);
#97=FACE_OUTER_BOUND('',#172,.T.);
#98=FACE_OUTER_BOUND('',#173,.T.);
#99=FACE_OUTER_BOUND('',#174,.T.);
#100=FACE_OUTER_BOUND('',#175,.T.);
#101=FACE_OUTER_BOUND('',#176,.T.);
#102=FACE_OUTER_BOUND('',#177,.T.);
#103=FACE_OUTER_BOUND('',#179,.T.);
#104=FACE_OUTER_BOUND('',#180,.T.);
#105=FACE_OUTER_BOUND('',#181,.T.);
#106=FACE_OUTER_BOUND('',#182,.T.);
#107=FACE_OUTER_BOUND('',#183,.T.);
#108=FACE_OUTER_BOUND('',#184,.T.);
#109=FACE_OUTER_BOUND('',#185,.T.);
#110=FACE_OUTER_BOUND('',#186,.T.);
#111=FACE_OUTER_BOUND('',#187,.T.);
#112=FACE_OUTER_BOUND('',#188,.T.);
#113=FACE_OUTER_BOUND('',#189,.T.);
#114=FACE_OUTER_BOUND('',#190,.T.);
#115=EDGE_LOOP('',(#713,#714,#715,#716));
#116=EDGE_LOOP('',(#717,#718,#719,#720));
#117=EDGE_LOOP('',(#721,#722,#723,#724));
#118=EDGE_LOOP('',(#725,#726,#727,#728));
#119=EDGE_LOOP('',(#729,#730,#731,#732));
#120=EDGE_LOOP('',(#733,#734,#735,#736));
#121=EDGE_LOOP('',(#737,#738,#739,#740,#741,#742));
#122=EDGE_LOOP('',(#743,#744,#745,#746));
#123=EDGE_LOOP('',(#747,#748,#749,#750));
#124=EDGE_LOOP('',(#751,#752,#753,#754));
#125=EDGE_LOOP('',(#755,#756,#757,#758));
#126=EDGE_LOOP('',(#759,#760,#761,#762));
#127=EDGE_LOOP('',(#763,#764,#765,#766));
#128=EDGE_LOOP('',(#767,#768,#769,#770));
#129=EDGE_LOOP('',(#771,#772,#773,#774));
#130=EDGE_LOOP('',(#775,#776,#777,#778));
#131=EDGE_LOOP('',(#779,#780,#781,#782,#783,#784));
#132=EDGE_LOOP('',(#785,#786,#787,#788,#789,#790,#791,#792));
#133=EDGE_LOOP('',(#793,#794,#795,#796));
#134=EDGE_LOOP('',(#797,#798,#799));
#135=EDGE_LOOP('',(#800,#801,#802,#803,#804));
#136=EDGE_LOOP('',(#805,#806,#807,#808));
#137=EDGE_LOOP('',(#809,#810,#811,#812,#813,#814));
#138=EDGE_LOOP('',(#815,#816,#817,#818,#819));
#139=EDGE_LOOP('',(#820,#821,#822,#823,#824,#825));
#140=EDGE_LOOP('',(#826,#827,#828,#829,#830));
#141=EDGE_LOOP('',(#831,#832,#833,#834));
#142=EDGE_LOOP('',(#835,#836,#837,#838));
#143=EDGE_LOOP('',(#839,#840,#841,#842));
#144=EDGE_LOOP('',(#843,#844,#845,#846));
#145=EDGE_LOOP('',(#847,#848,#849,#850));
#146=EDGE_LOOP('',(#851,#852,#853,#854,#855,#856));
#147=EDGE_LOOP('',(#857,#858,#859,#860));
#148=EDGE_LOOP('',(#861,#862,#863,#864));
#149=EDGE_LOOP('',(#865,#866,#867,#868));
#150=EDGE_LOOP('',(#869,#870,#871,#872,#873));
#151=EDGE_LOOP('',(#874,#875,#876,#877));
#152=EDGE_LOOP('',(#878,#879,#880,#881));
#153=EDGE_LOOP('',(#882,#883,#884,#885));
#154=EDGE_LOOP('',(#886,#887,#888,#889,#890));
#155=EDGE_LOOP('',(#891,#892,#893,#894));
#156=EDGE_LOOP('',(#895,#896,#897,#898));
#157=EDGE_LOOP('',(#899,#900,#901,#902));
#158=EDGE_LOOP('',(#903,#904,#905,#906,#907,#908,#909,#910));
#159=EDGE_LOOP('',(#911));
#160=EDGE_LOOP('',(#912));
#161=EDGE_LOOP('',(#913));
#162=EDGE_LOOP('',(#914));
#163=EDGE_LOOP('',(#915,#916,#917,#918));
#164=EDGE_LOOP('',(#919,#920,#921,#922,#923,#924,#925,#926));
#165=EDGE_LOOP('',(#927,#928,#929,#930));
#166=EDGE_LOOP('',(#931,#932,#933,#934));
#167=EDGE_LOOP('',(#935,#936,#937,#938));
#168=EDGE_LOOP('',(#939));
#169=EDGE_LOOP('',(#940,#941,#942,#943));
#170=EDGE_LOOP('',(#944));
#171=EDGE_LOOP('',(#945,#946,#947,#948));
#172=EDGE_LOOP('',(#949));
#173=EDGE_LOOP('',(#950,#951,#952,#953));
#174=EDGE_LOOP('',(#954));
#175=EDGE_LOOP('',(#955,#956,#957,#958));
#176=EDGE_LOOP('',(#959,#960,#961,#962));
#177=EDGE_LOOP('',(#963,#964,#965,#966));
#178=EDGE_LOOP('',(#967,#968,#969,#970));
#179=EDGE_LOOP('',(#971,#972,#973,#974));
#180=EDGE_LOOP('',(#975,#976,#977,#978));
#181=EDGE_LOOP('',(#979,#980,#981,#982));
#182=EDGE_LOOP('',(#983,#984,#985,#986));
#183=EDGE_LOOP('',(#987,#988,#989,#990));
#184=EDGE_LOOP('',(#991,#992,#993,#994));
#185=EDGE_LOOP('',(#995,#996,#997,#998));
#186=EDGE_LOOP('',(#999,#1000,#1001,#1002));
#187=EDGE_LOOP('',(#1003,#1004,#1005,#1006));
#188=EDGE_LOOP('',(#1007,#1008,#1009,#1010));
#189=EDGE_LOOP('',(#1011,#1012,#1013,#1014));
#190=EDGE_LOOP('',(#1015,#1016,#1017,#1018));
#191=LINE('',#1529,#328);
#192=LINE('',#1531,#329);
#193=LINE('',#1533,#330);
#194=LINE('',#1534,#331);
#195=LINE('',#1537,#332);
#196=LINE('',#1539,#333);
#197=LINE('',#1540,#334);
#198=LINE('',#1543,#335);
#199=LINE('',#1545,#336);
#200=LINE('',#1546,#337);
#201=LINE('',#1548,#338);
#202=LINE('',#1549,#339);
#203=LINE('',#1552,#340);
#204=LINE('',#1554,#341);
#205=LINE('',#1555,#342);
#206=LINE('',#1558,#343);
#207=LINE('',#1559,#344);
#208=LINE('',#1563,#345);
#209=LINE('',#1565,#346);
#210=LINE('',#1567,#347);
#211=LINE('',#1569,#348);
#212=LINE('',#1571,#349);
#213=LINE('',#1572,#350);
#214=LINE('',#1575,#351);
#215=LINE('',#1576,#352);
#216=LINE('',#1578,#353);
#217=LINE('',#1582,#354);
#218=LINE('',#1584,#355);
#219=LINE('',#1586,#356);
#220=LINE('',#1587,#357);
#221=LINE('',#1590,#358);
#222=LINE('',#1592,#359);
#223=LINE('',#1593,#360);
#224=LINE('',#1596,#361);
#225=LINE('',#1598,#362);
#226=LINE('',#1599,#363);
#227=LINE('',#1601,#364);
#228=LINE('',#1602,#365);
#229=LINE('',#1605,#366);
#230=LINE('',#1607,#367);
#231=LINE('',#1608,#368);
#232=LINE('',#1611,#369);
#233=LINE('',#1612,#370);
#234=LINE('',#1616,#371);
#235=LINE('',#1618,#372);
#236=LINE('',#1620,#373);
#237=LINE('',#1622,#374);
#238=LINE('',#1624,#375);
#239=LINE('',#1625,#376);
#240=LINE('',#1628,#377);
#241=LINE('',#1632,#378);
#242=LINE('',#1636,#379);
#243=LINE('',#1640,#380);
#244=LINE('',#1644,#381);
#245=LINE('',#1646,#382);
#246=LINE('',#1647,#383);
#247=LINE('',#1651,#384);
#248=LINE('',#1652,#385);
#249=LINE('',#1654,#386);
#250=LINE('',#1655,#387);
#251=LINE('',#1658,#388);
#252=LINE('',#1659,#389);
#253=LINE('',#1661,#390);
#254=LINE('',#1663,#391);
#255=LINE('',#1664,#392);
#256=LINE('',#1667,#393);
#257=LINE('',#1669,#394);
#258=LINE('',#1670,#395);
#259=LINE('',#1673,#396);
#260=LINE('',#1675,#397);
#261=LINE('',#1677,#398);
#262=LINE('',#1679,#399);
#263=LINE('',#1680,#400);
#264=LINE('',#1682,#401);
#265=LINE('',#1685,#402);
#266=LINE('',#1686,#403);
#267=LINE('',#1689,#404);
#268=LINE('',#1690,#405);
#269=LINE('',#1693,#406);
#270=LINE('',#1694,#407);
#271=LINE('',#1696,#408);
#272=LINE('',#1697,#409);
#273=LINE('',#1701,#410);
#274=LINE('',#1703,#411);
#275=LINE('',#1705,#412);
#276=LINE('',#1706,#413);
#277=LINE('',#1709,#414);
#278=LINE('',#1710,#415);
#279=LINE('',#1713,#416);
#280=LINE('',#1714,#417);
#281=LINE('',#1716,#418);
#282=LINE('',#1719,#419);
#283=LINE('',#1720,#420);
#284=LINE('',#1723,#421);
#285=LINE('',#1724,#422);
#286=LINE('',#1727,#423);
#287=LINE('',#1728,#424);
#288=LINE('',#1730,#425);
#289=LINE('',#1733,#426);
#290=LINE('',#1735,#427);
#291=LINE('',#1737,#428);
#292=LINE('',#1738,#429);
#293=LINE('',#1740,#430);
#294=LINE('',#1741,#431);
#295=LINE('',#1744,#432);
#296=LINE('',#1746,#433);
#297=LINE('',#1757,#434);
#298=LINE('',#1759,#435);
#299=LINE('',#1761,#436);
#300=LINE('',#1762,#437);
#301=LINE('',#1765,#438);
#302=LINE('',#1769,#439);
#303=LINE('',#1773,#440);
#304=LINE('',#1777,#441);
#305=LINE('',#1780,#442);
#306=LINE('',#1781,#443);
#307=LINE('',#1785,#444);
#308=LINE('',#1790,#445);
#309=LINE('',#1795,#446);
#310=LINE('',#1800,#447);
#311=LINE('',#1804,#448);
#312=LINE('',#1809,#449);
#313=LINE('',#1811,#450);
#314=LINE('',#1813,#451);
#315=LINE('',#1814,#452);
#316=LINE('',#1816,#453);
#317=LINE('',#1817,#454);
#318=LINE('',#1819,#455);
#319=LINE('',#1821,#456);
#320=LINE('',#1824,#457);
#321=LINE('',#1825,#458);
#322=LINE('',#1827,#459);
#323=LINE('',#1829,#460);
#324=LINE('',#1831,#461);
#325=LINE('',#1833,#462);
#326=LINE('',#1835,#463);
#327=LINE('',#1837,#464);
#328=VECTOR('',#1228,10.);
#329=VECTOR('',#1229,10.);
#330=VECTOR('',#1230,10.);
#331=VECTOR('',#1231,10.);
#332=VECTOR('',#1234,10.);
#333=VECTOR('',#1235,10.);
#334=VECTOR('',#1236,10.);
#335=VECTOR('',#1239,10.);
#336=VECTOR('',#1240,10.);
#337=VECTOR('',#1241,10.);
#338=VECTOR('',#1244,10.);
#339=VECTOR('',#1245,10.);
#340=VECTOR('',#1248,10.);
#341=VECTOR('',#1249,10.);
#342=VECTOR('',#1250,10.);
#343=VECTOR('',#1253,10.);
#344=VECTOR('',#1254,10.);
#345=VECTOR('',#1257,10.);
#346=VECTOR('',#1258,10.);
#347=VECTOR('',#1259,10.);
#348=VECTOR('',#1260,10.);
#349=VECTOR('',#1261,10.);
#350=VECTOR('',#1262,10.);
#351=VECTOR('',#1265,10.);
#352=VECTOR('',#1266,10.);
#353=VECTOR('',#1269,10.);
#354=VECTOR('',#1272,10.);
#355=VECTOR('',#1273,10.);
#356=VECTOR('',#1274,10.);
#357=VECTOR('',#1275,10.);
#358=VECTOR('',#1278,10.);
#359=VECTOR('',#1279,10.);
#360=VECTOR('',#1280,10.);
#361=VECTOR('',#1283,10.);
#362=VECTOR('',#1284,10.);
#363=VECTOR('',#1285,10.);
#364=VECTOR('',#1288,10.);
#365=VECTOR('',#1289,10.);
#366=VECTOR('',#1292,10.);
#367=VECTOR('',#1293,10.);
#368=VECTOR('',#1294,10.);
#369=VECTOR('',#1297,10.);
#370=VECTOR('',#1298,10.);
#371=VECTOR('',#1301,10.);
#372=VECTOR('',#1302,10.);
#373=VECTOR('',#1303,10.);
#374=VECTOR('',#1304,10.);
#375=VECTOR('',#1305,10.);
#376=VECTOR('',#1306,10.);
#377=VECTOR('',#1307,10.);
#378=VECTOR('',#1310,10.);
#379=VECTOR('',#1313,10.);
#380=VECTOR('',#1316,10.);
#381=VECTOR('',#1321,10.);
#382=VECTOR('',#1322,10.);
#383=VECTOR('',#1323,10.);
#384=VECTOR('',#1326,10.);
#385=VECTOR('',#1327,10.);
#386=VECTOR('',#1328,10.);
#387=VECTOR('',#1329,10.);
#388=VECTOR('',#1332,10.);
#389=VECTOR('',#1333,10.);
#390=VECTOR('',#1336,10.);
#391=VECTOR('',#1337,10.);
#392=VECTOR('',#1338,10.);
#393=VECTOR('',#1341,10.);
#394=VECTOR('',#1342,10.);
#395=VECTOR('',#1343,10.);
#396=VECTOR('',#1346,10.);
#397=VECTOR('',#1347,10.);
#398=VECTOR('',#1348,10.);
#399=VECTOR('',#1349,10.);
#400=VECTOR('',#1350,10.);
#401=VECTOR('',#1353,10.);
#402=VECTOR('',#1356,10.);
#403=VECTOR('',#1357,10.);
#404=VECTOR('',#1360,10.);
#405=VECTOR('',#1361,10.);
#406=VECTOR('',#1364,10.);
#407=VECTOR('',#1365,10.);
#408=VECTOR('',#1368,10.);
#409=VECTOR('',#1369,10.);
#410=VECTOR('',#1374,10.);
#411=VECTOR('',#1375,10.);
#412=VECTOR('',#1376,10.);
#413=VECTOR('',#1377,10.);
#414=VECTOR('',#1380,10.);
#415=VECTOR('',#1381,10.);
#416=VECTOR('',#1384,10.);
#417=VECTOR('',#1385,10.);
#418=VECTOR('',#1388,10.);
#419=VECTOR('',#1391,10.);
#420=VECTOR('',#1392,10.);
#421=VECTOR('',#1395,10.);
#422=VECTOR('',#1396,10.);
#423=VECTOR('',#1399,10.);
#424=VECTOR('',#1400,10.);
#425=VECTOR('',#1403,10.);
#426=VECTOR('',#1406,10.);
#427=VECTOR('',#1407,10.);
#428=VECTOR('',#1408,10.);
#429=VECTOR('',#1409,10.);
#430=VECTOR('',#1412,10.);
#431=VECTOR('',#1413,10.);
#432=VECTOR('',#1418,10.);
#433=VECTOR('',#1421,10.);
#434=VECTOR('',#1430,10.);
#435=VECTOR('',#1431,10.);
#436=VECTOR('',#1432,10.);
#437=VECTOR('',#1433,10.);
#438=VECTOR('',#1434,10.);
#439=VECTOR('',#1437,10.);
#440=VECTOR('',#1440,10.);
#441=VECTOR('',#1443,10.);
#442=VECTOR('',#1446,10.);
#443=VECTOR('',#1447,10.);
#444=VECTOR('',#1452,1.39999999999999);
#445=VECTOR('',#1459,1.40000000000001);
#446=VECTOR('',#1466,1.4);
#447=VECTOR('',#1473,1.4);
#448=VECTOR('',#1480,10.);
#449=VECTOR('',#1485,10.);
#450=VECTOR('',#1486,10.);
#451=VECTOR('',#1487,10.);
#452=VECTOR('',#1488,10.);
#453=VECTOR('',#1491,10.);
#454=VECTOR('',#1492,10.);
#455=VECTOR('',#1495,10.);
#456=VECTOR('',#1498,10.);
#457=VECTOR('',#1503,10.);
#458=VECTOR('',#1504,10.);
#459=VECTOR('',#1507,10.);
#460=VECTOR('',#1510,10.);
#461=VECTOR('',#1513,10.);
#462=VECTOR('',#1516,10.);
#463=VECTOR('',#1519,10.);
#464=VECTOR('',#1522,10.);
#465=VERTEX_POINT('',#1527);
#466=VERTEX_POINT('',#1528);
#467=VERTEX_POINT('',#1530);
#468=VERTEX_POINT('',#1532);
#469=VERTEX_POINT('',#1536);
#470=VERTEX_POINT('',#1538);
#471=VERTEX_POINT('',#1542);
#472=VERTEX_POINT('',#1544);
#473=VERTEX_POINT('',#1551);
#474=VERTEX_POINT('',#1553);
#475=VERTEX_POINT('',#1557);
#476=VERTEX_POINT('',#1561);
#477=VERTEX_POINT('',#1562);
#478=VERTEX_POINT('',#1564);
#479=VERTEX_POINT('',#1566);
#480=VERTEX_POINT('',#1568);
#481=VERTEX_POINT('',#1570);
#482=VERTEX_POINT('',#1574);
#483=VERTEX_POINT('',#1580);
#484=VERTEX_POINT('',#1581);
#485=VERTEX_POINT('',#1583);
#486=VERTEX_POINT('',#1585);
#487=VERTEX_POINT('',#1589);
#488=VERTEX_POINT('',#1591);
#489=VERTEX_POINT('',#1595);
#490=VERTEX_POINT('',#1597);
#491=VERTEX_POINT('',#1604);
#492=VERTEX_POINT('',#1606);
#493=VERTEX_POINT('',#1610);
#494=VERTEX_POINT('',#1614);
#495=VERTEX_POINT('',#1615);
#496=VERTEX_POINT('',#1617);
#497=VERTEX_POINT('',#1619);
#498=VERTEX_POINT('',#1621);
#499=VERTEX_POINT('',#1623);
#500=VERTEX_POINT('',#1626);
#501=VERTEX_POINT('',#1627);
#502=VERTEX_POINT('',#1629);
#503=VERTEX_POINT('',#1631);
#504=VERTEX_POINT('',#1633);
#505=VERTEX_POINT('',#1635);
#506=VERTEX_POINT('',#1637);
#507=VERTEX_POINT('',#1639);
#508=VERTEX_POINT('',#1643);
#509=VERTEX_POINT('',#1645);
#510=VERTEX_POINT('',#1649);
#511=VERTEX_POINT('',#1650);
#512=VERTEX_POINT('',#1653);
#513=VERTEX_POINT('',#1657);
#514=VERTEX_POINT('',#1662);
#515=VERTEX_POINT('',#1666);
#516=VERTEX_POINT('',#1668);
#517=VERTEX_POINT('',#1672);
#518=VERTEX_POINT('',#1674);
#519=VERTEX_POINT('',#1676);
#520=VERTEX_POINT('',#1678);
#521=VERTEX_POINT('',#1684);
#522=VERTEX_POINT('',#1688);
#523=VERTEX_POINT('',#1692);
#524=VERTEX_POINT('',#1700);
#525=VERTEX_POINT('',#1702);
#526=VERTEX_POINT('',#1704);
#527=VERTEX_POINT('',#1708);
#528=VERTEX_POINT('',#1712);
#529=VERTEX_POINT('',#1718);
#530=VERTEX_POINT('',#1722);
#531=VERTEX_POINT('',#1726);
#532=VERTEX_POINT('',#1732);
#533=VERTEX_POINT('',#1734);
#534=VERTEX_POINT('',#1736);
#535=VERTEX_POINT('',#1747);
#536=VERTEX_POINT('',#1749);
#537=VERTEX_POINT('',#1751);
#538=VERTEX_POINT('',#1753);
#539=VERTEX_POINT('',#1755);
#540=VERTEX_POINT('',#1756);
#541=VERTEX_POINT('',#1758);
#542=VERTEX_POINT('',#1760);
#543=VERTEX_POINT('',#1763);
#544=VERTEX_POINT('',#1764);
#545=VERTEX_POINT('',#1766);
#546=VERTEX_POINT('',#1768);
#547=VERTEX_POINT('',#1770);
#548=VERTEX_POINT('',#1772);
#549=VERTEX_POINT('',#1774);
#550=VERTEX_POINT('',#1776);
#551=VERTEX_POINT('',#1779);
#552=VERTEX_POINT('',#1784);
#553=VERTEX_POINT('',#1789);
#554=VERTEX_POINT('',#1794);
#555=VERTEX_POINT('',#1799);
#556=VERTEX_POINT('',#1807);
#557=VERTEX_POINT('',#1808);
#558=VERTEX_POINT('',#1810);
#559=VERTEX_POINT('',#1812);
#560=EDGE_CURVE('',#465,#466,#191,.T.);
#561=EDGE_CURVE('',#466,#467,#192,.T.);
#562=EDGE_CURVE('',#467,#468,#193,.T.);
#563=EDGE_CURVE('',#468,#465,#194,.T.);
#564=EDGE_CURVE('',#466,#469,#195,.T.);
#565=EDGE_CURVE('',#469,#470,#196,.T.);
#566=EDGE_CURVE('',#470,#467,#197,.T.);
#567=EDGE_CURVE('',#469,#471,#198,.T.);
#568=EDGE_CURVE('',#471,#472,#199,.T.);
#569=EDGE_CURVE('',#472,#470,#200,.T.);
#570=EDGE_CURVE('',#468,#472,#201,.T.);
#571=EDGE_CURVE('',#471,#465,#202,.T.);
#572=EDGE_CURVE('',#468,#473,#203,.T.);
#573=EDGE_CURVE('',#474,#473,#204,.T.);
#574=EDGE_CURVE('',#472,#474,#205,.T.);
#575=EDGE_CURVE('',#467,#475,#206,.T.);
#576=EDGE_CURVE('',#473,#475,#207,.T.);
#577=EDGE_CURVE('',#476,#477,#208,.T.);
#578=EDGE_CURVE('',#478,#476,#209,.T.);
#579=EDGE_CURVE('',#479,#478,#210,.T.);
#580=EDGE_CURVE('',#480,#479,#211,.T.);
#581=EDGE_CURVE('',#481,#480,#212,.T.);
#582=EDGE_CURVE('',#477,#481,#213,.T.);
#583=EDGE_CURVE('',#482,#474,#214,.T.);
#584=EDGE_CURVE('',#470,#482,#215,.T.);
#585=EDGE_CURVE('',#475,#482,#216,.T.);
#586=EDGE_CURVE('',#483,#484,#217,.T.);
#587=EDGE_CURVE('',#484,#485,#218,.T.);
#588=EDGE_CURVE('',#485,#486,#219,.T.);
#589=EDGE_CURVE('',#486,#483,#220,.T.);
#590=EDGE_CURVE('',#484,#487,#221,.T.);
#591=EDGE_CURVE('',#487,#488,#222,.T.);
#592=EDGE_CURVE('',#488,#485,#223,.T.);
#593=EDGE_CURVE('',#489,#488,#224,.T.);
#594=EDGE_CURVE('',#487,#490,#225,.T.);
#595=EDGE_CURVE('',#490,#489,#226,.T.);
#596=EDGE_CURVE('',#490,#483,#227,.T.);
#597=EDGE_CURVE('',#486,#489,#228,.T.);
#598=EDGE_CURVE('',#486,#491,#229,.T.);
#599=EDGE_CURVE('',#492,#491,#230,.T.);
#600=EDGE_CURVE('',#489,#492,#231,.T.);
#601=EDGE_CURVE('',#485,#493,#232,.T.);
#602=EDGE_CURVE('',#491,#493,#233,.T.);
#603=EDGE_CURVE('',#494,#495,#234,.T.);
#604=EDGE_CURVE('',#494,#496,#235,.T.);
#605=EDGE_CURVE('',#497,#496,#236,.T.);
#606=EDGE_CURVE('',#498,#497,#237,.T.);
#607=EDGE_CURVE('',#499,#498,#238,.T.);
#608=EDGE_CURVE('',#495,#499,#239,.T.);
#609=EDGE_CURVE('',#500,#501,#240,.T.);
#610=EDGE_CURVE('',#501,#502,#23,.T.);
#611=EDGE_CURVE('',#502,#503,#241,.T.);
#612=EDGE_CURVE('',#503,#504,#24,.T.);
#613=EDGE_CURVE('',#504,#505,#242,.T.);
#614=EDGE_CURVE('',#505,#506,#25,.T.);
#615=EDGE_CURVE('',#506,#507,#243,.T.);
#616=EDGE_CURVE('',#507,#500,#26,.T.);
#617=EDGE_CURVE('',#508,#494,#244,.T.);
#618=EDGE_CURVE('',#508,#509,#245,.T.);
#619=EDGE_CURVE('',#509,#494,#246,.T.);
#620=EDGE_CURVE('',#510,#511,#247,.T.);
#621=EDGE_CURVE('',#511,#494,#248,.T.);
#622=EDGE_CURVE('',#509,#512,#249,.T.);
#623=EDGE_CURVE('',#512,#510,#250,.T.);
#624=EDGE_CURVE('',#513,#511,#251,.T.);
#625=EDGE_CURVE('',#496,#513,#252,.T.);
#626=EDGE_CURVE('',#477,#510,#253,.T.);
#627=EDGE_CURVE('',#481,#514,#254,.T.);
#628=EDGE_CURVE('',#513,#514,#255,.T.);
#629=EDGE_CURVE('',#514,#515,#256,.T.);
#630=EDGE_CURVE('',#515,#516,#257,.T.);
#631=EDGE_CURVE('',#516,#496,#258,.F.);
#632=EDGE_CURVE('',#516,#517,#259,.T.);
#633=EDGE_CURVE('',#518,#515,#260,.T.);
#634=EDGE_CURVE('',#519,#518,#261,.T.);
#635=EDGE_CURVE('',#520,#519,#262,.T.);
#636=EDGE_CURVE('',#517,#520,#263,.T.);
#637=EDGE_CURVE('',#480,#518,#264,.T.);
#638=EDGE_CURVE('',#521,#508,#265,.T.);
#639=EDGE_CURVE('',#495,#521,#266,.T.);
#640=EDGE_CURVE('',#522,#521,#267,.T.);
#641=EDGE_CURVE('',#499,#522,#268,.T.);
#642=EDGE_CURVE('',#523,#522,#269,.T.);
#643=EDGE_CURVE('',#498,#523,#270,.T.);
#644=EDGE_CURVE('',#517,#523,#271,.T.);
#645=EDGE_CURVE('',#497,#517,#272,.T.);
#646=EDGE_CURVE('',#524,#521,#273,.T.);
#647=EDGE_CURVE('',#525,#524,#274,.T.);
#648=EDGE_CURVE('',#526,#525,#275,.T.);
#649=EDGE_CURVE('',#509,#526,#276,.T.);
#650=EDGE_CURVE('',#522,#527,#277,.T.);
#651=EDGE_CURVE('',#527,#524,#278,.T.);
#652=EDGE_CURVE('',#528,#523,#279,.T.);
#653=EDGE_CURVE('',#527,#528,#280,.T.);
#654=EDGE_CURVE('',#520,#528,#281,.T.);
#655=EDGE_CURVE('',#512,#529,#282,.T.);
#656=EDGE_CURVE('',#476,#529,#283,.T.);
#657=EDGE_CURVE('',#530,#518,#284,.T.);
#658=EDGE_CURVE('',#479,#530,#285,.T.);
#659=EDGE_CURVE('',#531,#530,#286,.T.);
#660=EDGE_CURVE('',#478,#531,#287,.T.);
#661=EDGE_CURVE('',#529,#531,#288,.T.);
#662=EDGE_CURVE('',#532,#531,#289,.T.);
#663=EDGE_CURVE('',#533,#532,#290,.T.);
#664=EDGE_CURVE('',#534,#533,#291,.T.);
#665=EDGE_CURVE('',#530,#534,#292,.T.);
#666=EDGE_CURVE('',#529,#526,#293,.T.);
#667=EDGE_CURVE('',#532,#526,#294,.T.);
#668=EDGE_CURVE('',#525,#533,#295,.T.);
#669=EDGE_CURVE('',#534,#519,#296,.T.);
#670=EDGE_CURVE('',#535,#535,#27,.T.);
#671=EDGE_CURVE('',#536,#536,#28,.T.);
#672=EDGE_CURVE('',#537,#537,#29,.T.);
#673=EDGE_CURVE('',#538,#538,#30,.T.);
#674=EDGE_CURVE('',#539,#540,#297,.T.);
#675=EDGE_CURVE('',#540,#541,#298,.T.);
#676=EDGE_CURVE('',#541,#542,#299,.T.);
#677=EDGE_CURVE('',#542,#539,#300,.T.);
#678=EDGE_CURVE('',#543,#544,#301,.T.);
#679=EDGE_CURVE('',#544,#545,#31,.T.);
#680=EDGE_CURVE('',#545,#546,#302,.T.);
#681=EDGE_CURVE('',#546,#547,#32,.T.);
#682=EDGE_CURVE('',#547,#548,#303,.T.);
#683=EDGE_CURVE('',#548,#549,#33,.T.);
#684=EDGE_CURVE('',#549,#550,#304,.T.);
#685=EDGE_CURVE('',#550,#543,#34,.T.);
#686=EDGE_CURVE('',#493,#551,#305,.T.);
#687=EDGE_CURVE('',#551,#492,#306,.T.);
#688=EDGE_CURVE('',#535,#552,#307,.T.);
#689=EDGE_CURVE('',#552,#552,#35,.T.);
#690=EDGE_CURVE('',#536,#553,#308,.T.);
#691=EDGE_CURVE('',#553,#553,#36,.T.);
#692=EDGE_CURVE('',#537,#554,#309,.T.);
#693=EDGE_CURVE('',#554,#554,#37,.T.);
#694=EDGE_CURVE('',#538,#555,#310,.T.);
#695=EDGE_CURVE('',#555,#555,#38,.T.);
#696=EDGE_CURVE('',#488,#551,#311,.T.);
#697=EDGE_CURVE('',#556,#557,#312,.T.);
#698=EDGE_CURVE('',#558,#556,#313,.T.);
#699=EDGE_CURVE('',#559,#558,#314,.T.);
#700=EDGE_CURVE('',#557,#559,#315,.T.);
#701=EDGE_CURVE('',#539,#556,#316,.T.);
#702=EDGE_CURVE('',#558,#542,#317,.T.);
#703=EDGE_CURVE('',#557,#540,#318,.T.);
#704=EDGE_CURVE('',#559,#541,#319,.T.);
#705=EDGE_CURVE('',#504,#548,#320,.T.);
#706=EDGE_CURVE('',#505,#547,#321,.T.);
#707=EDGE_CURVE('',#506,#546,#322,.T.);
#708=EDGE_CURVE('',#507,#545,#323,.T.);
#709=EDGE_CURVE('',#500,#544,#324,.T.);
#710=EDGE_CURVE('',#543,#501,#325,.T.);
#711=EDGE_CURVE('',#503,#549,#326,.T.);
#712=EDGE_CURVE('',#502,#550,#327,.T.);
#713=ORIENTED_EDGE('',*,*,#560,.T.);
#714=ORIENTED_EDGE('',*,*,#561,.T.);
#715=ORIENTED_EDGE('',*,*,#562,.T.);
#716=ORIENTED_EDGE('',*,*,#563,.T.);
#717=ORIENTED_EDGE('',*,*,#564,.T.);
#718=ORIENTED_EDGE('',*,*,#565,.T.);
#719=ORIENTED_EDGE('',*,*,#566,.T.);
#720=ORIENTED_EDGE('',*,*,#561,.F.);
#721=ORIENTED_EDGE('',*,*,#567,.T.);
#722=ORIENTED_EDGE('',*,*,#568,.T.);
#723=ORIENTED_EDGE('',*,*,#569,.T.);
#724=ORIENTED_EDGE('',*,*,#565,.F.);
#725=ORIENTED_EDGE('',*,*,#570,.T.);
#726=ORIENTED_EDGE('',*,*,#568,.F.);
#727=ORIENTED_EDGE('',*,*,#571,.T.);
#728=ORIENTED_EDGE('',*,*,#563,.F.);
#729=ORIENTED_EDGE('',*,*,#570,.F.);
#730=ORIENTED_EDGE('',*,*,#572,.T.);
#731=ORIENTED_EDGE('',*,*,#573,.F.);
#732=ORIENTED_EDGE('',*,*,#574,.F.);
#733=ORIENTED_EDGE('',*,*,#562,.F.);
#734=ORIENTED_EDGE('',*,*,#575,.T.);
#735=ORIENTED_EDGE('',*,*,#576,.F.);
#736=ORIENTED_EDGE('',*,*,#572,.F.);
#737=ORIENTED_EDGE('',*,*,#577,.F.);
#738=ORIENTED_EDGE('',*,*,#578,.F.);
#739=ORIENTED_EDGE('',*,*,#579,.F.);
#740=ORIENTED_EDGE('',*,*,#580,.F.);
#741=ORIENTED_EDGE('',*,*,#581,.F.);
#742=ORIENTED_EDGE('',*,*,#582,.F.);
#743=ORIENTED_EDGE('',*,*,#560,.F.);
#744=ORIENTED_EDGE('',*,*,#571,.F.);
#745=ORIENTED_EDGE('',*,*,#567,.F.);
#746=ORIENTED_EDGE('',*,*,#564,.F.);
#747=ORIENTED_EDGE('',*,*,#569,.F.);
#748=ORIENTED_EDGE('',*,*,#574,.T.);
#749=ORIENTED_EDGE('',*,*,#583,.F.);
#750=ORIENTED_EDGE('',*,*,#584,.F.);
#751=ORIENTED_EDGE('',*,*,#566,.F.);
#752=ORIENTED_EDGE('',*,*,#584,.T.);
#753=ORIENTED_EDGE('',*,*,#585,.F.);
#754=ORIENTED_EDGE('',*,*,#575,.F.);
#755=ORIENTED_EDGE('',*,*,#586,.T.);
#756=ORIENTED_EDGE('',*,*,#587,.T.);
#757=ORIENTED_EDGE('',*,*,#588,.T.);
#758=ORIENTED_EDGE('',*,*,#589,.T.);
#759=ORIENTED_EDGE('',*,*,#590,.T.);
#760=ORIENTED_EDGE('',*,*,#591,.T.);
#761=ORIENTED_EDGE('',*,*,#592,.T.);
#762=ORIENTED_EDGE('',*,*,#587,.F.);
#763=ORIENTED_EDGE('',*,*,#593,.T.);
#764=ORIENTED_EDGE('',*,*,#591,.F.);
#765=ORIENTED_EDGE('',*,*,#594,.T.);
#766=ORIENTED_EDGE('',*,*,#595,.T.);
#767=ORIENTED_EDGE('',*,*,#596,.T.);
#768=ORIENTED_EDGE('',*,*,#589,.F.);
#769=ORIENTED_EDGE('',*,*,#597,.T.);
#770=ORIENTED_EDGE('',*,*,#595,.F.);
#771=ORIENTED_EDGE('',*,*,#597,.F.);
#772=ORIENTED_EDGE('',*,*,#598,.T.);
#773=ORIENTED_EDGE('',*,*,#599,.F.);
#774=ORIENTED_EDGE('',*,*,#600,.F.);
#775=ORIENTED_EDGE('',*,*,#588,.F.);
#776=ORIENTED_EDGE('',*,*,#601,.T.);
#777=ORIENTED_EDGE('',*,*,#602,.F.);
#778=ORIENTED_EDGE('',*,*,#598,.F.);
#779=ORIENTED_EDGE('',*,*,#603,.F.);
#780=ORIENTED_EDGE('',*,*,#604,.T.);
#781=ORIENTED_EDGE('',*,*,#605,.F.);
#782=ORIENTED_EDGE('',*,*,#606,.F.);
#783=ORIENTED_EDGE('',*,*,#607,.F.);
#784=ORIENTED_EDGE('',*,*,#608,.F.);
#785=ORIENTED_EDGE('',*,*,#609,.T.);
#786=ORIENTED_EDGE('',*,*,#610,.T.);
#787=ORIENTED_EDGE('',*,*,#611,.T.);
#788=ORIENTED_EDGE('',*,*,#612,.T.);
#789=ORIENTED_EDGE('',*,*,#613,.T.);
#790=ORIENTED_EDGE('',*,*,#614,.T.);
#791=ORIENTED_EDGE('',*,*,#615,.T.);
#792=ORIENTED_EDGE('',*,*,#616,.T.);
#793=ORIENTED_EDGE('',*,*,#586,.F.);
#794=ORIENTED_EDGE('',*,*,#596,.F.);
#795=ORIENTED_EDGE('',*,*,#594,.F.);
#796=ORIENTED_EDGE('',*,*,#590,.F.);
#797=ORIENTED_EDGE('',*,*,#617,.F.);
#798=ORIENTED_EDGE('',*,*,#618,.T.);
#799=ORIENTED_EDGE('',*,*,#619,.T.);
#800=ORIENTED_EDGE('',*,*,#620,.T.);
#801=ORIENTED_EDGE('',*,*,#621,.T.);
#802=ORIENTED_EDGE('',*,*,#619,.F.);
#803=ORIENTED_EDGE('',*,*,#622,.T.);
#804=ORIENTED_EDGE('',*,*,#623,.T.);
#805=ORIENTED_EDGE('',*,*,#621,.F.);
#806=ORIENTED_EDGE('',*,*,#624,.F.);
#807=ORIENTED_EDGE('',*,*,#625,.F.);
#808=ORIENTED_EDGE('',*,*,#604,.F.);
#809=ORIENTED_EDGE('',*,*,#620,.F.);
#810=ORIENTED_EDGE('',*,*,#626,.F.);
#811=ORIENTED_EDGE('',*,*,#582,.T.);
#812=ORIENTED_EDGE('',*,*,#627,.T.);
#813=ORIENTED_EDGE('',*,*,#628,.F.);
#814=ORIENTED_EDGE('',*,*,#624,.T.);
#815=ORIENTED_EDGE('',*,*,#629,.T.);
#816=ORIENTED_EDGE('',*,*,#630,.T.);
#817=ORIENTED_EDGE('',*,*,#631,.T.);
#818=ORIENTED_EDGE('',*,*,#625,.T.);
#819=ORIENTED_EDGE('',*,*,#628,.T.);
#820=ORIENTED_EDGE('',*,*,#632,.F.);
#821=ORIENTED_EDGE('',*,*,#630,.F.);
#822=ORIENTED_EDGE('',*,*,#633,.F.);
#823=ORIENTED_EDGE('',*,*,#634,.F.);
#824=ORIENTED_EDGE('',*,*,#635,.F.);
#825=ORIENTED_EDGE('',*,*,#636,.F.);
#826=ORIENTED_EDGE('',*,*,#629,.F.);
#827=ORIENTED_EDGE('',*,*,#627,.F.);
#828=ORIENTED_EDGE('',*,*,#581,.T.);
#829=ORIENTED_EDGE('',*,*,#637,.T.);
#830=ORIENTED_EDGE('',*,*,#633,.T.);
#831=ORIENTED_EDGE('',*,*,#638,.T.);
#832=ORIENTED_EDGE('',*,*,#617,.T.);
#833=ORIENTED_EDGE('',*,*,#603,.T.);
#834=ORIENTED_EDGE('',*,*,#639,.T.);
#835=ORIENTED_EDGE('',*,*,#640,.T.);
#836=ORIENTED_EDGE('',*,*,#639,.F.);
#837=ORIENTED_EDGE('',*,*,#608,.T.);
#838=ORIENTED_EDGE('',*,*,#641,.T.);
#839=ORIENTED_EDGE('',*,*,#642,.T.);
#840=ORIENTED_EDGE('',*,*,#641,.F.);
#841=ORIENTED_EDGE('',*,*,#607,.T.);
#842=ORIENTED_EDGE('',*,*,#643,.T.);
#843=ORIENTED_EDGE('',*,*,#644,.T.);
#844=ORIENTED_EDGE('',*,*,#643,.F.);
#845=ORIENTED_EDGE('',*,*,#606,.T.);
#846=ORIENTED_EDGE('',*,*,#645,.T.);
#847=ORIENTED_EDGE('',*,*,#605,.T.);
#848=ORIENTED_EDGE('',*,*,#631,.F.);
#849=ORIENTED_EDGE('',*,*,#632,.T.);
#850=ORIENTED_EDGE('',*,*,#645,.F.);
#851=ORIENTED_EDGE('',*,*,#638,.F.);
#852=ORIENTED_EDGE('',*,*,#646,.F.);
#853=ORIENTED_EDGE('',*,*,#647,.F.);
#854=ORIENTED_EDGE('',*,*,#648,.F.);
#855=ORIENTED_EDGE('',*,*,#649,.F.);
#856=ORIENTED_EDGE('',*,*,#618,.F.);
#857=ORIENTED_EDGE('',*,*,#640,.F.);
#858=ORIENTED_EDGE('',*,*,#650,.T.);
#859=ORIENTED_EDGE('',*,*,#651,.T.);
#860=ORIENTED_EDGE('',*,*,#646,.T.);
#861=ORIENTED_EDGE('',*,*,#642,.F.);
#862=ORIENTED_EDGE('',*,*,#652,.F.);
#863=ORIENTED_EDGE('',*,*,#653,.F.);
#864=ORIENTED_EDGE('',*,*,#650,.F.);
#865=ORIENTED_EDGE('',*,*,#644,.F.);
#866=ORIENTED_EDGE('',*,*,#636,.T.);
#867=ORIENTED_EDGE('',*,*,#654,.T.);
#868=ORIENTED_EDGE('',*,*,#652,.T.);
#869=ORIENTED_EDGE('',*,*,#623,.F.);
#870=ORIENTED_EDGE('',*,*,#655,.T.);
#871=ORIENTED_EDGE('',*,*,#656,.F.);
#872=ORIENTED_EDGE('',*,*,#577,.T.);
#873=ORIENTED_EDGE('',*,*,#626,.T.);
#874=ORIENTED_EDGE('',*,*,#657,.T.);
#875=ORIENTED_EDGE('',*,*,#637,.F.);
#876=ORIENTED_EDGE('',*,*,#580,.T.);
#877=ORIENTED_EDGE('',*,*,#658,.T.);
#878=ORIENTED_EDGE('',*,*,#659,.T.);
#879=ORIENTED_EDGE('',*,*,#658,.F.);
#880=ORIENTED_EDGE('',*,*,#579,.T.);
#881=ORIENTED_EDGE('',*,*,#660,.T.);
#882=ORIENTED_EDGE('',*,*,#661,.T.);
#883=ORIENTED_EDGE('',*,*,#660,.F.);
#884=ORIENTED_EDGE('',*,*,#578,.T.);
#885=ORIENTED_EDGE('',*,*,#656,.T.);
#886=ORIENTED_EDGE('',*,*,#659,.F.);
#887=ORIENTED_EDGE('',*,*,#662,.F.);
#888=ORIENTED_EDGE('',*,*,#663,.F.);
#889=ORIENTED_EDGE('',*,*,#664,.F.);
#890=ORIENTED_EDGE('',*,*,#665,.F.);
#891=ORIENTED_EDGE('',*,*,#661,.F.);
#892=ORIENTED_EDGE('',*,*,#666,.T.);
#893=ORIENTED_EDGE('',*,*,#667,.F.);
#894=ORIENTED_EDGE('',*,*,#662,.T.);
#895=ORIENTED_EDGE('',*,*,#622,.F.);
#896=ORIENTED_EDGE('',*,*,#649,.T.);
#897=ORIENTED_EDGE('',*,*,#666,.F.);
#898=ORIENTED_EDGE('',*,*,#655,.F.);
#899=ORIENTED_EDGE('',*,*,#668,.T.);
#900=ORIENTED_EDGE('',*,*,#663,.T.);
#901=ORIENTED_EDGE('',*,*,#667,.T.);
#902=ORIENTED_EDGE('',*,*,#648,.T.);
#903=ORIENTED_EDGE('',*,*,#668,.F.);
#904=ORIENTED_EDGE('',*,*,#647,.T.);
#905=ORIENTED_EDGE('',*,*,#651,.F.);
#906=ORIENTED_EDGE('',*,*,#653,.T.);
#907=ORIENTED_EDGE('',*,*,#654,.F.);
#908=ORIENTED_EDGE('',*,*,#635,.T.);
#909=ORIENTED_EDGE('',*,*,#669,.F.);
#910=ORIENTED_EDGE('',*,*,#664,.T.);
#911=ORIENTED_EDGE('',*,*,#670,.T.);
#912=ORIENTED_EDGE('',*,*,#671,.T.);
#913=ORIENTED_EDGE('',*,*,#672,.T.);
#914=ORIENTED_EDGE('',*,*,#673,.T.);
#915=ORIENTED_EDGE('',*,*,#674,.T.);
#916=ORIENTED_EDGE('',*,*,#675,.T.);
#917=ORIENTED_EDGE('',*,*,#676,.T.);
#918=ORIENTED_EDGE('',*,*,#677,.T.);
#919=ORIENTED_EDGE('',*,*,#678,.T.);
#920=ORIENTED_EDGE('',*,*,#679,.T.);
#921=ORIENTED_EDGE('',*,*,#680,.T.);
#922=ORIENTED_EDGE('',*,*,#681,.T.);
#923=ORIENTED_EDGE('',*,*,#682,.T.);
#924=ORIENTED_EDGE('',*,*,#683,.T.);
#925=ORIENTED_EDGE('',*,*,#684,.T.);
#926=ORIENTED_EDGE('',*,*,#685,.T.);
#927=ORIENTED_EDGE('',*,*,#602,.T.);
#928=ORIENTED_EDGE('',*,*,#686,.T.);
#929=ORIENTED_EDGE('',*,*,#687,.T.);
#930=ORIENTED_EDGE('',*,*,#599,.T.);
#931=ORIENTED_EDGE('',*,*,#657,.F.);
#932=ORIENTED_EDGE('',*,*,#665,.T.);
#933=ORIENTED_EDGE('',*,*,#669,.T.);
#934=ORIENTED_EDGE('',*,*,#634,.T.);
#935=ORIENTED_EDGE('',*,*,#670,.F.);
#936=ORIENTED_EDGE('',*,*,#688,.T.);
#937=ORIENTED_EDGE('',*,*,#689,.T.);
#938=ORIENTED_EDGE('',*,*,#688,.F.);
#939=ORIENTED_EDGE('',*,*,#689,.F.);
#940=ORIENTED_EDGE('',*,*,#671,.F.);
#941=ORIENTED_EDGE('',*,*,#690,.T.);
#942=ORIENTED_EDGE('',*,*,#691,.T.);
#943=ORIENTED_EDGE('',*,*,#690,.F.);
#944=ORIENTED_EDGE('',*,*,#691,.F.);
#945=ORIENTED_EDGE('',*,*,#672,.F.);
#946=ORIENTED_EDGE('',*,*,#692,.T.);
#947=ORIENTED_EDGE('',*,*,#693,.T.);
#948=ORIENTED_EDGE('',*,*,#692,.F.);
#949=ORIENTED_EDGE('',*,*,#693,.F.);
#950=ORIENTED_EDGE('',*,*,#673,.F.);
#951=ORIENTED_EDGE('',*,*,#694,.T.);
#952=ORIENTED_EDGE('',*,*,#695,.T.);
#953=ORIENTED_EDGE('',*,*,#694,.F.);
#954=ORIENTED_EDGE('',*,*,#695,.F.);
#955=ORIENTED_EDGE('',*,*,#593,.F.);
#956=ORIENTED_EDGE('',*,*,#600,.T.);
#957=ORIENTED_EDGE('',*,*,#687,.F.);
#958=ORIENTED_EDGE('',*,*,#696,.F.);
#959=ORIENTED_EDGE('',*,*,#592,.F.);
#960=ORIENTED_EDGE('',*,*,#696,.T.);
#961=ORIENTED_EDGE('',*,*,#686,.F.);
#962=ORIENTED_EDGE('',*,*,#601,.F.);
#963=ORIENTED_EDGE('',*,*,#697,.F.);
#964=ORIENTED_EDGE('',*,*,#698,.F.);
#965=ORIENTED_EDGE('',*,*,#699,.F.);
#966=ORIENTED_EDGE('',*,*,#700,.F.);
#967=ORIENTED_EDGE('',*,*,#576,.T.);
#968=ORIENTED_EDGE('',*,*,#585,.T.);
#969=ORIENTED_EDGE('',*,*,#583,.T.);
#970=ORIENTED_EDGE('',*,*,#573,.T.);
#971=ORIENTED_EDGE('',*,*,#698,.T.);
#972=ORIENTED_EDGE('',*,*,#701,.F.);
#973=ORIENTED_EDGE('',*,*,#677,.F.);
#974=ORIENTED_EDGE('',*,*,#702,.F.);
#975=ORIENTED_EDGE('',*,*,#697,.T.);
#976=ORIENTED_EDGE('',*,*,#703,.T.);
#977=ORIENTED_EDGE('',*,*,#674,.F.);
#978=ORIENTED_EDGE('',*,*,#701,.T.);
#979=ORIENTED_EDGE('',*,*,#700,.T.);
#980=ORIENTED_EDGE('',*,*,#704,.T.);
#981=ORIENTED_EDGE('',*,*,#675,.F.);
#982=ORIENTED_EDGE('',*,*,#703,.F.);
#983=ORIENTED_EDGE('',*,*,#699,.T.);
#984=ORIENTED_EDGE('',*,*,#702,.T.);
#985=ORIENTED_EDGE('',*,*,#676,.F.);
#986=ORIENTED_EDGE('',*,*,#704,.F.);
#987=ORIENTED_EDGE('',*,*,#705,.T.);
#988=ORIENTED_EDGE('',*,*,#682,.F.);
#989=ORIENTED_EDGE('',*,*,#706,.F.);
#990=ORIENTED_EDGE('',*,*,#613,.F.);
#991=ORIENTED_EDGE('',*,*,#706,.T.);
#992=ORIENTED_EDGE('',*,*,#681,.F.);
#993=ORIENTED_EDGE('',*,*,#707,.F.);
#994=ORIENTED_EDGE('',*,*,#614,.F.);
#995=ORIENTED_EDGE('',*,*,#707,.T.);
#996=ORIENTED_EDGE('',*,*,#680,.F.);
#997=ORIENTED_EDGE('',*,*,#708,.F.);
#998=ORIENTED_EDGE('',*,*,#615,.F.);
#999=ORIENTED_EDGE('',*,*,#708,.T.);
#1000=ORIENTED_EDGE('',*,*,#679,.F.);
#1001=ORIENTED_EDGE('',*,*,#709,.F.);
#1002=ORIENTED_EDGE('',*,*,#616,.F.);
#1003=ORIENTED_EDGE('',*,*,#709,.T.);
#1004=ORIENTED_EDGE('',*,*,#678,.F.);
#1005=ORIENTED_EDGE('',*,*,#710,.T.);
#1006=ORIENTED_EDGE('',*,*,#609,.F.);
#1007=ORIENTED_EDGE('',*,*,#711,.T.);
#1008=ORIENTED_EDGE('',*,*,#683,.F.);
#1009=ORIENTED_EDGE('',*,*,#705,.F.);
#1010=ORIENTED_EDGE('',*,*,#612,.F.);
#1011=ORIENTED_EDGE('',*,*,#712,.T.);
#1012=ORIENTED_EDGE('',*,*,#684,.F.);
#1013=ORIENTED_EDGE('',*,*,#711,.F.);
#1014=ORIENTED_EDGE('',*,*,#611,.F.);
#1015=ORIENTED_EDGE('',*,*,#710,.F.);
#1016=ORIENTED_EDGE('',*,*,#685,.F.);
#1017=ORIENTED_EDGE('',*,*,#712,.F.);
#1018=ORIENTED_EDGE('',*,*,#610,.F.);
#1019=PLANE('',#1143);
#1020=PLANE('',#1144);
#1021=PLANE('',#1145);
#1022=PLANE('',#1146);
#1023=PLANE('',#1147);
#1024=PLANE('',#1148);
#1025=PLANE('',#1149);
#1026=PLANE('',#1150);
#1027=PLANE('',#1151);
#1028=PLANE('',#1152);
#1029=PLANE('',#1153);
#1030=PLANE('',#1154);
#1031=PLANE('',#1155);
#1032=PLANE('',#1156);
#1033=PLANE('',#1157);
#1034=PLANE('',#1158);
#1035=PLANE('',#1163);
#1036=PLANE('',#1164);
#1037=PLANE('',#1165);
#1038=PLANE('',#1166);
#1039=PLANE('',#1167);
#1040=PLANE('',#1168);
#1041=PLANE('',#1169);
#1042=PLANE('',#1170);
#1043=PLANE('',#1171);
#1044=PLANE('',#1172);
#1045=PLANE('',#1173);
#1046=PLANE('',#1174);
#1047=PLANE('',#1175);
#1048=PLANE('',#1176);
#1049=PLANE('',#1177);
#1050=PLANE('',#1178);
#1051=PLANE('',#1179);
#1052=PLANE('',#1180);
#1053=PLANE('',#1181);
#1054=PLANE('',#1182);
#1055=PLANE('',#1183);
#1056=PLANE('',#1184);
#1057=PLANE('',#1185);
#1058=PLANE('',#1186);
#1059=PLANE('',#1187);
#1060=PLANE('',#1196);
#1061=PLANE('',#1199);
#1062=PLANE('',#1202);
#1063=PLANE('',#1205);
#1064=PLANE('',#1208);
#1065=PLANE('',#1209);
#1066=PLANE('',#1210);
#1067=PLANE('',#1211);
#1068=PLANE('',#1212);
#1069=PLANE('',#1213);
#1070=PLANE('',#1214);
#1071=PLANE('',#1215);
#1072=PLANE('',#1216);
#1073=PLANE('',#1218);
#1074=PLANE('',#1220);
#1075=PLANE('',#1222);
#1076=ADVANCED_FACE('',(#50),#1019,.T.);
#1077=ADVANCED_FACE('',(#51),#1020,.T.);
#1078=ADVANCED_FACE('',(#52),#1021,.T.);
#1079=ADVANCED_FACE('',(#53),#1022,.T.);
#1080=ADVANCED_FACE('',(#54),#1023,.F.);
#1081=ADVANCED_FACE('',(#55),#1024,.F.);
#1082=ADVANCED_FACE('',(#56,#39),#1025,.T.);
#1083=ADVANCED_FACE('',(#57),#1026,.F.);
#1084=ADVANCED_FACE('',(#58),#1027,.F.);
#1085=ADVANCED_FACE('',(#59),#1028,.T.);
#1086=ADVANCED_FACE('',(#60),#1029,.T.);
#1087=ADVANCED_FACE('',(#61),#1030,.T.);
#1088=ADVANCED_FACE('',(#62),#1031,.T.);
#1089=ADVANCED_FACE('',(#63),#1032,.F.);
#1090=ADVANCED_FACE('',(#64),#1033,.F.);
#1091=ADVANCED_FACE('',(#65,#40,#41),#1034,.T.);
#1092=ADVANCED_FACE('',(#66),#1035,.T.);
#1093=ADVANCED_FACE('',(#67),#1036,.T.);
#1094=ADVANCED_FACE('',(#68),#1037,.T.);
#1095=ADVANCED_FACE('',(#69),#1038,.T.);
#1096=ADVANCED_FACE('',(#70),#1039,.T.);
#1097=ADVANCED_FACE('',(#71),#1040,.T.);
#1098=ADVANCED_FACE('',(#72),#1041,.T.);
#1099=ADVANCED_FACE('',(#73),#1042,.T.);
#1100=ADVANCED_FACE('',(#74),#1043,.T.);
#1101=ADVANCED_FACE('',(#75),#1044,.T.);
#1102=ADVANCED_FACE('',(#76),#1045,.T.);
#1103=ADVANCED_FACE('',(#77),#1046,.T.);
#1104=ADVANCED_FACE('',(#78),#1047,.T.);
#1105=ADVANCED_FACE('',(#79),#1048,.T.);
#1106=ADVANCED_FACE('',(#80),#1049,.T.);
#1107=ADVANCED_FACE('',(#81),#1050,.T.);
#1108=ADVANCED_FACE('',(#82),#1051,.T.);
#1109=ADVANCED_FACE('',(#83),#1052,.T.);
#1110=ADVANCED_FACE('',(#84),#1053,.T.);
#1111=ADVANCED_FACE('',(#85),#1054,.T.);
#1112=ADVANCED_FACE('',(#86),#1055,.T.);
#1113=ADVANCED_FACE('',(#87),#1056,.T.);
#1114=ADVANCED_FACE('',(#88),#1057,.T.);
#1115=ADVANCED_FACE('',(#89),#1058,.T.);
#1116=ADVANCED_FACE('',(#90,#42,#43,#44,#45,#46,#47,#48),#1059,.F.);
#1117=ADVANCED_FACE('',(#91),#1060,.T.);
#1118=ADVANCED_FACE('',(#92),#15,.F.);
#1119=ADVANCED_FACE('',(#93),#1061,.T.);
#1120=ADVANCED_FACE('',(#94),#16,.F.);
#1121=ADVANCED_FACE('',(#95),#1062,.T.);
#1122=ADVANCED_FACE('',(#96),#17,.F.);
#1123=ADVANCED_FACE('',(#97),#1063,.T.);
#1124=ADVANCED_FACE('',(#98),#18,.F.);
#1125=ADVANCED_FACE('',(#99),#1064,.T.);
#1126=ADVANCED_FACE('',(#100),#1065,.F.);
#1127=ADVANCED_FACE('',(#101),#1066,.F.);
#1128=ADVANCED_FACE('',(#102,#49),#1067,.T.);
#1129=ADVANCED_FACE('',(#103),#1068,.F.);
#1130=ADVANCED_FACE('',(#104),#1069,.F.);
#1131=ADVANCED_FACE('',(#105),#1070,.F.);
#1132=ADVANCED_FACE('',(#106),#1071,.F.);
#1133=ADVANCED_FACE('',(#107),#1072,.F.);
#1134=ADVANCED_FACE('',(#108),#19,.F.);
#1135=ADVANCED_FACE('',(#109),#1073,.F.);
#1136=ADVANCED_FACE('',(#110),#20,.F.);
#1137=ADVANCED_FACE('',(#111),#1074,.F.);
#1138=ADVANCED_FACE('',(#112),#21,.F.);
#1139=ADVANCED_FACE('',(#113),#1075,.F.);
#1140=ADVANCED_FACE('',(#114),#22,.F.);
#1141=CLOSED_SHELL('',(#1076,#1077,#1078,#1079,#1080,#1081,#1082,#1083,
#1084,#1085,#1086,#1087,#1088,#1089,#1090,#1091,#1092,#1093,#1094,#1095,
#1096,#1097,#1098,#1099,#1100,#1101,#1102,#1103,#1104,#1105,#1106,#1107,
#1108,#1109,#1110,#1111,#1112,#1113,#1114,#1115,#1116,#1117,#1118,#1119,
#1120,#1121,#1122,#1123,#1124,#1125,#1126,#1127,#1128,#1129,#1130,#1131,
#1132,#1133,#1134,#1135,#1136,#1137,#1138,#1139,#1140));
#1142=AXIS2_PLACEMENT_3D('',#1525,#1224,#1225);
#1143=AXIS2_PLACEMENT_3D('',#1526,#1226,#1227);
#1144=AXIS2_PLACEMENT_3D('',#1535,#1232,#1233);
#1145=AXIS2_PLACEMENT_3D('',#1541,#1237,#1238);
#1146=AXIS2_PLACEMENT_3D('',#1547,#1242,#1243);
#1147=AXIS2_PLACEMENT_3D('',#1550,#1246,#1247);
#1148=AXIS2_PLACEMENT_3D('',#1556,#1251,#1252);
#1149=AXIS2_PLACEMENT_3D('',#1560,#1255,#1256);
#1150=AXIS2_PLACEMENT_3D('',#1573,#1263,#1264);
#1151=AXIS2_PLACEMENT_3D('',#1577,#1267,#1268);
#1152=AXIS2_PLACEMENT_3D('',#1579,#1270,#1271);
#1153=AXIS2_PLACEMENT_3D('',#1588,#1276,#1277);
#1154=AXIS2_PLACEMENT_3D('',#1594,#1281,#1282);
#1155=AXIS2_PLACEMENT_3D('',#1600,#1286,#1287);
#1156=AXIS2_PLACEMENT_3D('',#1603,#1290,#1291);
#1157=AXIS2_PLACEMENT_3D('',#1609,#1295,#1296);
#1158=AXIS2_PLACEMENT_3D('',#1613,#1299,#1300);
#1159=AXIS2_PLACEMENT_3D('',#1630,#1308,#1309);
#1160=AXIS2_PLACEMENT_3D('',#1634,#1311,#1312);
#1161=AXIS2_PLACEMENT_3D('',#1638,#1314,#1315);
#1162=AXIS2_PLACEMENT_3D('',#1641,#1317,#1318);
#1163=AXIS2_PLACEMENT_3D('',#1642,#1319,#1320);
#1164=AXIS2_PLACEMENT_3D('',#1648,#1324,#1325);
#1165=AXIS2_PLACEMENT_3D('',#1656,#1330,#1331);
#1166=AXIS2_PLACEMENT_3D('',#1660,#1334,#1335);
#1167=AXIS2_PLACEMENT_3D('',#1665,#1339,#1340);
#1168=AXIS2_PLACEMENT_3D('',#1671,#1344,#1345);
#1169=AXIS2_PLACEMENT_3D('',#1681,#1351,#1352);
#1170=AXIS2_PLACEMENT_3D('',#1683,#1354,#1355);
#1171=AXIS2_PLACEMENT_3D('',#1687,#1358,#1359);
#1172=AXIS2_PLACEMENT_3D('',#1691,#1362,#1363);
#1173=AXIS2_PLACEMENT_3D('',#1695,#1366,#1367);
#1174=AXIS2_PLACEMENT_3D('',#1698,#1370,#1371);
#1175=AXIS2_PLACEMENT_3D('',#1699,#1372,#1373);
#1176=AXIS2_PLACEMENT_3D('',#1707,#1378,#1379);
#1177=AXIS2_PLACEMENT_3D('',#1711,#1382,#1383);
#1178=AXIS2_PLACEMENT_3D('',#1715,#1386,#1387);
#1179=AXIS2_PLACEMENT_3D('',#1717,#1389,#1390);
#1180=AXIS2_PLACEMENT_3D('',#1721,#1393,#1394);
#1181=AXIS2_PLACEMENT_3D('',#1725,#1397,#1398);
#1182=AXIS2_PLACEMENT_3D('',#1729,#1401,#1402);
#1183=AXIS2_PLACEMENT_3D('',#1731,#1404,#1405);
#1184=AXIS2_PLACEMENT_3D('',#1739,#1410,#1411);
#1185=AXIS2_PLACEMENT_3D('',#1742,#1414,#1415);
#1186=AXIS2_PLACEMENT_3D('',#1743,#1416,#1417);
#1187=AXIS2_PLACEMENT_3D('',#1745,#1419,#1420);
#1188=AXIS2_PLACEMENT_3D('',#1748,#1422,#1423);
#1189=AXIS2_PLACEMENT_3D('',#1750,#1424,#1425);
#1190=AXIS2_PLACEMENT_3D('',#1752,#1426,#1427);
#1191=AXIS2_PLACEMENT_3D('',#1754,#1428,#1429);
#1192=AXIS2_PLACEMENT_3D('',#1767,#1435,#1436);
#1193=AXIS2_PLACEMENT_3D('',#1771,#1438,#1439);
#1194=AXIS2_PLACEMENT_3D('',#1775,#1441,#1442);
#1195=AXIS2_PLACEMENT_3D('',#1778,#1444,#1445);
#1196=AXIS2_PLACEMENT_3D('',#1782,#1448,#1449);
#1197=AXIS2_PLACEMENT_3D('',#1783,#1450,#1451);
#1198=AXIS2_PLACEMENT_3D('',#1786,#1453,#1454);
#1199=AXIS2_PLACEMENT_3D('',#1787,#1455,#1456);
#1200=AXIS2_PLACEMENT_3D('',#1788,#1457,#1458);
#1201=AXIS2_PLACEMENT_3D('',#1791,#1460,#1461);
#1202=AXIS2_PLACEMENT_3D('',#1792,#1462,#1463);
#1203=AXIS2_PLACEMENT_3D('',#1793,#1464,#1465);
#1204=AXIS2_PLACEMENT_3D('',#1796,#1467,#1468);
#1205=AXIS2_PLACEMENT_3D('',#1797,#1469,#1470);
#1206=AXIS2_PLACEMENT_3D('',#1798,#1471,#1472);
#1207=AXIS2_PLACEMENT_3D('',#1801,#1474,#1475);
#1208=AXIS2_PLACEMENT_3D('',#1802,#1476,#1477);
#1209=AXIS2_PLACEMENT_3D('',#1803,#1478,#1479);
#1210=AXIS2_PLACEMENT_3D('',#1805,#1481,#1482);
#1211=AXIS2_PLACEMENT_3D('',#1806,#1483,#1484);
#1212=AXIS2_PLACEMENT_3D('',#1815,#1489,#1490);
#1213=AXIS2_PLACEMENT_3D('',#1818,#1493,#1494);
#1214=AXIS2_PLACEMENT_3D('',#1820,#1496,#1497);
#1215=AXIS2_PLACEMENT_3D('',#1822,#1499,#1500);
#1216=AXIS2_PLACEMENT_3D('',#1823,#1501,#1502);
#1217=AXIS2_PLACEMENT_3D('',#1826,#1505,#1506);
#1218=AXIS2_PLACEMENT_3D('',#1828,#1508,#1509);
#1219=AXIS2_PLACEMENT_3D('',#1830,#1511,#1512);
#1220=AXIS2_PLACEMENT_3D('',#1832,#1514,#1515);
#1221=AXIS2_PLACEMENT_3D('',#1834,#1517,#1518);
#1222=AXIS2_PLACEMENT_3D('',#1836,#1520,#1521);
#1223=AXIS2_PLACEMENT_3D('',#1838,#1523,#1524);
#1224=DIRECTION('axis',(0.,0.,1.));
#1225=DIRECTION('refdir',(1.,0.,0.));
#1226=DIRECTION('center_axis',(-0.707106781186548,0.,0.707106781186548));
#1227=DIRECTION('ref_axis',(0.707106781186548,0.,0.707106781186548));
#1228=DIRECTION('',(0.,1.,0.));
#1229=DIRECTION('',(-0.577350269189628,-0.577350269189621,-0.577350269189628));
#1230=DIRECTION('',(0.,-1.,0.));
#1231=DIRECTION('',(0.577350269189627,-0.577350269189624,0.577350269189627));
#1232=DIRECTION('center_axis',(0.,-0.707106781186552,0.707106781186543));
#1233=DIRECTION('ref_axis',(1.,0.,0.));
#1234=DIRECTION('',(-1.,0.,0.));
#1235=DIRECTION('',(0.57735026918963,-0.57735026918962,-0.577350269189628));
#1236=DIRECTION('',(1.,0.,0.));
#1237=DIRECTION('center_axis',(0.707106781186546,0.,0.707106781186549));
#1238=DIRECTION('ref_axis',(0.707106781186549,0.,-0.707106781186546));
#1239=DIRECTION('',(0.,-1.,0.));
#1240=DIRECTION('',(0.577350269189628,0.577350269189623,-0.577350269189626));
#1241=DIRECTION('',(0.,1.,0.));
#1242=DIRECTION('center_axis',(0.,0.707106781186549,0.707106781186546));
#1243=DIRECTION('ref_axis',(1.,0.,0.));
#1244=DIRECTION('',(-1.,0.,0.));
#1245=DIRECTION('',(1.,0.,0.));
#1246=DIRECTION('center_axis',(0.,-1.,0.));
#1247=DIRECTION('ref_axis',(-1.,0.,0.));
#1248=DIRECTION('',(0.,0.,-1.));
#1249=DIRECTION('',(1.,0.,0.));
#1250=DIRECTION('',(0.,0.,-1.));
#1251=DIRECTION('center_axis',(1.,0.,0.));
#1252=DIRECTION('ref_axis',(0.,-1.,0.));
#1253=DIRECTION('',(0.,0.,-1.));
#1254=DIRECTION('',(0.,1.,0.));
#1255=DIRECTION('center_axis',(0.,0.,1.));
#1256=DIRECTION('ref_axis',(1.,0.,0.));
#1257=DIRECTION('',(-3.85677111162696E-8,-0.999999999999999,0.));
#1258=DIRECTION('',(0.707106767550803,-0.707106794822292,0.));
#1259=DIRECTION('',(1.,0.,0.));
#1260=DIRECTION('',(0.707106781186549,0.707106781186546,0.));
#1261=DIRECTION('',(0.,1.,0.));
#1262=DIRECTION('',(-1.,0.,0.));
#1263=DIRECTION('center_axis',(-1.,0.,0.));
#1264=DIRECTION('ref_axis',(0.,1.,0.));
#1265=DIRECTION('',(0.,-1.,0.));
#1266=DIRECTION('',(0.,0.,-1.));
#1267=DIRECTION('center_axis',(0.,1.,0.));
#1268=DIRECTION('ref_axis',(1.,0.,0.));
#1269=DIRECTION('',(-1.,0.,0.));
#1270=DIRECTION('center_axis',(-0.707106781186549,0.,0.707106781186546));
#1271=DIRECTION('ref_axis',(0.707106781186546,0.,0.707106781186549));
#1272=DIRECTION('',(0.,1.,0.));
#1273=DIRECTION('',(-0.577350269189625,-0.577350269189625,-0.577350269189628));
#1274=DIRECTION('',(0.,-1.,0.));
#1275=DIRECTION('',(0.577350269189623,-0.577350269189628,0.577350269189626));
#1276=DIRECTION('center_axis',(0.,-0.707106781186549,0.707106781186546));
#1277=DIRECTION('ref_axis',(1.,0.,0.));
#1278=DIRECTION('',(-1.,0.,0.));
#1279=DIRECTION('',(0.577350269189626,-0.577350269189624,-0.577350269189627));
#1280=DIRECTION('',(1.,0.,0.));
#1281=DIRECTION('center_axis',(0.707106781186548,0.,0.707106781186547));
#1282=DIRECTION('ref_axis',(0.707106781186547,0.,-0.707106781186548));
#1283=DIRECTION('',(0.,1.,0.));
#1284=DIRECTION('',(0.,-1.,0.));
#1285=DIRECTION('',(0.577350269189625,0.577350269189628,-0.577350269189625));
#1286=DIRECTION('center_axis',(0.,0.707106781186546,0.707106781186549));
#1287=DIRECTION('ref_axis',(1.,0.,0.));
#1288=DIRECTION('',(1.,0.,0.));
#1289=DIRECTION('',(-1.,0.,0.));
#1290=DIRECTION('center_axis',(0.,-1.,0.));
#1291=DIRECTION('ref_axis',(-1.,0.,0.));
#1292=DIRECTION('',(0.,0.,-1.));
#1293=DIRECTION('',(1.,0.,0.));
#1294=DIRECTION('',(0.,0.,-1.));
#1295=DIRECTION('center_axis',(1.,0.,0.));
#1296=DIRECTION('ref_axis',(0.,-1.,0.));
#1297=DIRECTION('',(0.,0.,-1.));
#1298=DIRECTION('',(0.,1.,0.));
#1299=DIRECTION('center_axis',(0.,0.,1.));
#1300=DIRECTION('ref_axis',(1.,0.,0.));
#1301=DIRECTION('',(0.,-1.,0.));
#1302=DIRECTION('',(-1.,0.,0.));
#1303=DIRECTION('',(0.,1.,0.));
#1304=DIRECTION('',(-0.707106781186547,0.707106781186548,0.));
#1305=DIRECTION('',(-1.,0.,0.));
#1306=DIRECTION('',(-0.707106781186546,-0.707106781186549,0.));
#1307=DIRECTION('',(6.93889390390723E-18,1.,0.));
#1308=DIRECTION('center_axis',(0.,0.,-1.));
#1309=DIRECTION('ref_axis',(6.93889390390723E-18,1.,0.));
#1310=DIRECTION('',(1.,-6.93889390390723E-18,0.));
#1311=DIRECTION('center_axis',(0.,0.,-1.));
#1312=DIRECTION('ref_axis',(1.,-6.93889390390723E-18,0.));
#1313=DIRECTION('',(-6.93889390390723E-18,-1.,0.));
#1314=DIRECTION('center_axis',(0.,0.,-1.));
#1315=DIRECTION('ref_axis',(-6.93889390390723E-18,-1.,0.));
#1316=DIRECTION('',(-1.,6.93889390390723E-18,0.));
#1317=DIRECTION('center_axis',(0.,0.,-1.));
#1318=DIRECTION('ref_axis',(-1.,6.93889390390723E-18,0.));
#1319=DIRECTION('center_axis',(0.707106781186549,-0.707106781186546,0.));
#1320=DIRECTION('ref_axis',(0.,0.,-1.));
#1321=DIRECTION('',(-0.577350269189624,-0.577350269189627,0.577350269189626));
#1322=DIRECTION('',(0.,0.,1.));
#1323=DIRECTION('',(-0.707106781186546,-0.707106781186549,0.));
#1324=DIRECTION('center_axis',(0.707106767550805,-0.70710679482229,0.));
#1325=DIRECTION('ref_axis',(0.,0.,-1.));
#1326=DIRECTION('',(-0.577350284034342,-0.577350261767268,-0.577350261767268));
#1327=DIRECTION('',(0.,0.,-1.));
#1328=DIRECTION('',(0.,0.,1.));
#1329=DIRECTION('',(-0.577350284034343,-0.577350261767268,0.577350261767266));
#1330=DIRECTION('center_axis',(0.,-1.,0.));
#1331=DIRECTION('ref_axis',(1.,0.,0.));
#1332=DIRECTION('',(1.,0.,0.));
#1333=DIRECTION('',(0.,0.,1.));
#1334=DIRECTION('center_axis',(0.,-0.707106781186548,0.707106781186548));
#1335=DIRECTION('ref_axis',(1.,0.,0.));
#1336=DIRECTION('',(0.577350254344906,-0.577350276611986,-0.577350276611986));
#1337=DIRECTION('',(-0.577350269189626,-0.577350269189626,-0.577350269189626));
#1338=DIRECTION('',(-0.577350269189627,0.577350269189625,0.577350269189625));
#1339=DIRECTION('center_axis',(-0.707106781186546,-0.707106781186549,0.));
#1340=DIRECTION('ref_axis',(0.,0.,1.));
#1341=DIRECTION('',(-0.577350269189627,0.577350269189625,-0.577350269189625));
#1342=DIRECTION('',(0.,0.,-1.));
#1343=DIRECTION('',(-0.577350269189627,0.577350269189625,-0.577350269189626));
#1344=DIRECTION('center_axis',(-1.,0.,0.));
#1345=DIRECTION('ref_axis',(0.,-1.,0.));
#1346=DIRECTION('',(0.,-1.,0.));
#1347=DIRECTION('',(0.,-1.,0.));
#1348=DIRECTION('',(0.,0.,1.));
#1349=DIRECTION('',(0.,1.,0.));
#1350=DIRECTION('',(0.,0.,-1.));
#1351=DIRECTION('center_axis',(-0.707106781186546,0.,0.707106781186549));
#1352=DIRECTION('ref_axis',(0.707106781186549,0.,0.707106781186546));
#1353=DIRECTION('',(-0.678598344545851,0.281084637714809,-0.678598344545848));
#1354=DIRECTION('center_axis',(0.707106781186549,0.,0.707106781186546));
#1355=DIRECTION('ref_axis',(0.707106781186546,0.,-0.707106781186549));
#1356=DIRECTION('',(0.,1.,0.));
#1357=DIRECTION('',(0.678598344545847,-0.281084637714815,-0.678598344545849));
#1358=DIRECTION('center_axis',(0.500000000000002,-0.500000000000001,0.707106781186546));
#1359=DIRECTION('ref_axis',(0.816496580927724,0.,-0.577350269189629));
#1360=DIRECTION('',(0.707106781186546,0.707106781186549,0.));
#1361=DIRECTION('',(0.281084637714815,-0.678598344545848,-0.678598344545848));
#1362=DIRECTION('center_axis',(0.,-0.707106781186547,0.707106781186548));
#1363=DIRECTION('ref_axis',(1.,0.,0.));
#1364=DIRECTION('',(1.,0.,0.));
#1365=DIRECTION('',(-0.281084637714812,-0.678598344545849,-0.678598344545848));
#1366=DIRECTION('center_axis',(-0.500000000000002,-0.500000000000002,0.707106781186545));
#1367=DIRECTION('ref_axis',(0.816496580927724,0.,0.577350269189629));
#1368=DIRECTION('',(0.707106781186547,-0.707106781186548,0.));
#1369=DIRECTION('',(-0.678598344545849,-0.281084637714812,-0.678598344545848));
#1370=DIRECTION('center_axis',(-0.707106781186547,0.,0.707106781186548));
#1371=DIRECTION('ref_axis',(0.707106781186548,0.,0.707106781186547));
#1372=DIRECTION('center_axis',(1.,0.,0.));
#1373=DIRECTION('ref_axis',(0.,1.,0.));
#1374=DIRECTION('',(0.,0.,1.));
#1375=DIRECTION('',(0.,-1.,0.));
#1376=DIRECTION('',(0.,0.,-1.));
#1377=DIRECTION('',(0.,1.,0.));
#1378=DIRECTION('center_axis',(0.707106781186549,-0.707106781186546,0.));
#1379=DIRECTION('ref_axis',(0.,0.,-1.));
#1380=DIRECTION('',(0.,0.,-1.));
#1381=DIRECTION('',(0.707106781186546,0.707106781186549,0.));
#1382=DIRECTION('center_axis',(0.,-1.,0.));
#1383=DIRECTION('ref_axis',(1.,0.,0.));
#1384=DIRECTION('',(0.,0.,1.));
#1385=DIRECTION('',(-1.,0.,0.));
#1386=DIRECTION('center_axis',(-0.707106781186548,-0.707106781186547,0.));
#1387=DIRECTION('ref_axis',(0.,0.,1.));
#1388=DIRECTION('',(0.707106781186547,-0.707106781186548,0.));
#1389=DIRECTION('center_axis',(0.707106781186548,-2.72714900651581E-8,0.707106781186546));
#1390=DIRECTION('ref_axis',(0.707106781186546,0.,-0.707106781186549));
#1391=DIRECTION('',(3.85677111162696E-8,0.999999999999999,0.));
#1392=DIRECTION('',(0.678598353924472,0.281084618602785,-0.678598343083686));
#1393=DIRECTION('center_axis',(-0.500000000000001,0.500000000000003,0.707106781186545));
#1394=DIRECTION('ref_axis',(0.816496580927725,0.,0.577350269189627));
#1395=DIRECTION('',(-0.707106781186549,-0.707106781186546,0.));
#1396=DIRECTION('',(-0.281084637714816,0.678598344545846,-0.67859834454585));
#1397=DIRECTION('center_axis',(0.,0.707106781186549,0.707106781186546));
#1398=DIRECTION('ref_axis',(1.,0.,0.));
#1399=DIRECTION('',(-1.,0.,0.));
#1400=DIRECTION('',(0.281084644774768,0.678598343083682,-0.678598343083685));
#1401=DIRECTION('center_axis',(0.500000009641928,0.499999990358073,0.707106781186547));
#1402=DIRECTION('ref_axis',(0.816496575679325,0.,-0.577350276611986));
#1403=DIRECTION('',(-0.707106767550803,0.707106794822292,0.));
#1404=DIRECTION('center_axis',(0.,1.,0.));
#1405=DIRECTION('ref_axis',(-1.,0.,0.));
#1406=DIRECTION('',(0.,0.,1.));
#1407=DIRECTION('',(0.,0.,1.));
#1408=DIRECTION('',(1.,0.,0.));
#1409=DIRECTION('',(0.,0.,-1.));
#1410=DIRECTION('center_axis',(0.707106794822292,0.707106767550803,0.));
#1411=DIRECTION('ref_axis',(0.,0.,-1.));
#1412=DIRECTION('',(0.,0.,-1.));
#1413=DIRECTION('',(0.707106781186548,-0.707106781186548,0.));
#1414=DIRECTION('center_axis',(0.999999999999999,-3.85677111162696E-8,0.));
#1415=DIRECTION('ref_axis',(3.85677111162696E-8,0.999999999999999,0.));
#1416=DIRECTION('center_axis',(0.707106781186548,0.707106781186548,0.));
#1417=DIRECTION('ref_axis',(0.,0.,-1.));
#1418=DIRECTION('',(-0.707106781186548,0.707106781186548,0.));
#1419=DIRECTION('center_axis',(0.,0.,1.));
#1420=DIRECTION('ref_axis',(1.,0.,0.));
#1421=DIRECTION('',(-0.707106781186549,-0.707106781186546,0.));
#1422=DIRECTION('center_axis',(0.,0.,1.));
#1423=DIRECTION('ref_axis',(1.,0.,0.));
#1424=DIRECTION('center_axis',(0.,0.,1.));
#1425=DIRECTION('ref_axis',(1.,0.,0.));
#1426=DIRECTION('center_axis',(0.,0.,1.));
#1427=DIRECTION('ref_axis',(1.,0.,0.));
#1428=DIRECTION('center_axis',(0.,0.,1.));
#1429=DIRECTION('ref_axis',(1.,0.,0.));
#1430=DIRECTION('',(0.,-1.,0.));
#1431=DIRECTION('',(1.,0.,0.));
#1432=DIRECTION('',(0.,1.,0.));
#1433=DIRECTION('',(-1.,0.,0.));
#1434=DIRECTION('',(-6.93889390390723E-18,-1.,0.));
#1435=DIRECTION('center_axis',(0.,0.,1.));
#1436=DIRECTION('ref_axis',(-1.,6.93889390390723E-18,0.));
#1437=DIRECTION('',(1.,-6.93889390390723E-18,0.));
#1438=DIRECTION('center_axis',(0.,0.,1.));
#1439=DIRECTION('ref_axis',(-6.93889390390723E-18,-1.,0.));
#1440=DIRECTION('',(6.93889390390723E-18,1.,0.));
#1441=DIRECTION('center_axis',(0.,0.,1.));
#1442=DIRECTION('ref_axis',(1.,-6.93889390390723E-18,0.));
#1443=DIRECTION('',(-1.,6.93889390390723E-18,0.));
#1444=DIRECTION('center_axis',(0.,0.,1.));
#1445=DIRECTION('ref_axis',(6.93889390390723E-18,1.,0.));
#1446=DIRECTION('',(-1.,0.,0.));
#1447=DIRECTION('',(0.,-1.,0.));
#1448=DIRECTION('center_axis',(-0.707106781186546,0.707106781186549,0.));
#1449=DIRECTION('ref_axis',(0.,0.,1.));
#1450=DIRECTION('center_axis',(0.,0.,1.));
#1451=DIRECTION('ref_axis',(1.,0.,0.));
#1452=DIRECTION('',(0.,0.,1.));
#1453=DIRECTION('center_axis',(0.,0.,1.));
#1454=DIRECTION('ref_axis',(1.,0.,0.));
#1455=DIRECTION('center_axis',(0.,0.,-1.));
#1456=DIRECTION('ref_axis',(1.,0.,0.));
#1457=DIRECTION('center_axis',(0.,0.,1.));
#1458=DIRECTION('ref_axis',(1.,0.,0.));
#1459=DIRECTION('',(0.,0.,1.));
#1460=DIRECTION('center_axis',(0.,0.,1.));
#1461=DIRECTION('ref_axis',(1.,0.,0.));
#1462=DIRECTION('center_axis',(0.,0.,-1.));
#1463=DIRECTION('ref_axis',(1.,0.,0.));
#1464=DIRECTION('center_axis',(0.,0.,1.));
#1465=DIRECTION('ref_axis',(1.,0.,0.));
#1466=DIRECTION('',(0.,0.,1.));
#1467=DIRECTION('center_axis',(0.,0.,1.));
#1468=DIRECTION('ref_axis',(1.,0.,0.));
#1469=DIRECTION('center_axis',(0.,0.,-1.));
#1470=DIRECTION('ref_axis',(1.,0.,0.));
#1471=DIRECTION('center_axis',(0.,0.,1.));
#1472=DIRECTION('ref_axis',(1.,0.,0.));
#1473=DIRECTION('',(0.,0.,1.));
#1474=DIRECTION('center_axis',(0.,0.,1.));
#1475=DIRECTION('ref_axis',(1.,0.,0.));
#1476=DIRECTION('center_axis',(0.,0.,-1.));
#1477=DIRECTION('ref_axis',(1.,0.,0.));
#1478=DIRECTION('center_axis',(-1.,0.,0.));
#1479=DIRECTION('ref_axis',(0.,1.,0.));
#1480=DIRECTION('',(0.,0.,-1.));
#1481=DIRECTION('center_axis',(0.,1.,0.));
#1482=DIRECTION('ref_axis',(1.,0.,0.));
#1483=DIRECTION('center_axis',(0.,0.,-1.));
#1484=DIRECTION('ref_axis',(0.,1.,0.));
#1485=DIRECTION('',(0.,-1.,0.));
#1486=DIRECTION('',(-1.,0.,0.));
#1487=DIRECTION('',(0.,1.,0.));
#1488=DIRECTION('',(1.,0.,0.));
#1489=DIRECTION('center_axis',(0.,1.,0.));
#1490=DIRECTION('ref_axis',(1.,0.,0.));
#1491=DIRECTION('',(0.,0.,1.));
#1492=DIRECTION('',(0.,0.,-1.));
#1493=DIRECTION('center_axis',(-1.,0.,0.));
#1494=DIRECTION('ref_axis',(0.,1.,0.));
#1495=DIRECTION('',(0.,0.,-1.));
#1496=DIRECTION('center_axis',(0.,-1.,0.));
#1497=DIRECTION('ref_axis',(-1.,0.,0.));
#1498=DIRECTION('',(0.,0.,-1.));
#1499=DIRECTION('center_axis',(1.,0.,0.));
#1500=DIRECTION('ref_axis',(0.,-1.,0.));
#1501=DIRECTION('center_axis',(1.,-6.93889390390723E-18,0.));
#1502=DIRECTION('ref_axis',(-6.93889390390723E-18,-1.,0.));
#1503=DIRECTION('',(0.,0.,-1.));
#1504=DIRECTION('',(0.,0.,-1.));
#1505=DIRECTION('center_axis',(0.,0.,-1.));
#1506=DIRECTION('ref_axis',(-6.93889390390723E-18,-1.,0.));
#1507=DIRECTION('',(0.,0.,-1.));
#1508=DIRECTION('center_axis',(-6.93889390390723E-18,-1.,0.));
#1509=DIRECTION('ref_axis',(-1.,6.93889390390723E-18,1.73472347597681E-18));
#1510=DIRECTION('',(0.,0.,-1.));
#1511=DIRECTION('center_axis',(0.,0.,-1.));
#1512=DIRECTION('ref_axis',(-1.,6.93889390390723E-18,0.));
#1513=DIRECTION('',(0.,0.,-1.));
#1514=DIRECTION('center_axis',(-1.,6.93889390390723E-18,0.));
#1515=DIRECTION('ref_axis',(6.93889390390723E-18,1.,0.));
#1516=DIRECTION('',(0.,0.,1.));
#1517=DIRECTION('center_axis',(0.,0.,-1.));
#1518=DIRECTION('ref_axis',(1.,-6.93889390390723E-18,0.));
#1519=DIRECTION('',(0.,0.,-1.));
#1520=DIRECTION('center_axis',(6.93889390390723E-18,1.,0.));
#1521=DIRECTION('ref_axis',(1.,-6.93889390390723E-18,-1.73472347597681E-18));
#1522=DIRECTION('',(0.,0.,-1.));
#1523=DIRECTION('center_axis',(0.,0.,-1.));
#1524=DIRECTION('ref_axis',(6.93889390390723E-18,1.,0.));
#1525=CARTESIAN_POINT('',(0.,0.,0.));
#1526=CARTESIAN_POINT('Origin',(68.188,91.6485000000001,22.));
#1527=CARTESIAN_POINT('',(69.188,83.7170000000002,23.));
#1528=CARTESIAN_POINT('',(69.188,93.2970000000002,23.));
#1529=CARTESIAN_POINT('',(69.188,91.6485000000001,23.));
#1530=CARTESIAN_POINT('',(67.188,91.2970000000002,21.));
#1531=CARTESIAN_POINT('',(69.188,93.2970000000002,23.));
#1532=CARTESIAN_POINT('',(67.188,85.7170000000002,21.));
#1533=CARTESIAN_POINT('',(67.188,91.6485000000001,21.));
#1534=CARTESIAN_POINT('',(67.188,85.7170000000002,21.));
#1535=CARTESIAN_POINT('Origin',(44.4040003278255,92.2970000000002,22.));
#1536=CARTESIAN_POINT('',(42.808,93.2970000000002,23.));
#1537=CARTESIAN_POINT('',(44.4040003278255,93.2970000000002,23.));
#1538=CARTESIAN_POINT('',(44.808,91.2970000000002,21.));
#1539=CARTESIAN_POINT('',(42.808,93.2970000000002,23.));
#1540=CARTESIAN_POINT('',(44.4040003278255,91.2970000000002,21.));
#1541=CARTESIAN_POINT('Origin',(43.808,88.8585000000001,22.));
#1542=CARTESIAN_POINT('',(42.808,83.7170000000002,23.));
#1543=CARTESIAN_POINT('',(42.808,88.8585000000001,23.));
#1544=CARTESIAN_POINT('',(44.808,85.7170000000002,21.));
#1545=CARTESIAN_POINT('',(42.808,83.7170000000002,23.));
#1546=CARTESIAN_POINT('',(44.808,88.8585000000001,21.));
#1547=CARTESIAN_POINT('Origin',(55.5940003278255,84.7170000000002,22.));
#1548=CARTESIAN_POINT('',(55.5940003278255,85.7170000000002,21.));
#1549=CARTESIAN_POINT('',(55.5940003278255,83.7170000000002,23.));
#1550=CARTESIAN_POINT('Origin',(67.188,85.7170000000002,23.));
#1551=CARTESIAN_POINT('',(67.188,85.7170000000002,16.));
#1552=CARTESIAN_POINT('',(67.188,85.7170000000002,23.));
#1553=CARTESIAN_POINT('',(44.808,85.7170000000002,16.));
#1554=CARTESIAN_POINT('',(38.594,85.7170000000002,16.));
#1555=CARTESIAN_POINT('',(44.808,85.7170000000002,23.));
#1556=CARTESIAN_POINT('Origin',(67.188,91.2970000000002,23.));
#1557=CARTESIAN_POINT('',(67.188,91.2970000000002,16.));
#1558=CARTESIAN_POINT('',(67.188,91.2970000000002,23.));
#1559=CARTESIAN_POINT('',(67.188,83.1485000000001,16.));
#1560=CARTESIAN_POINT('Origin',(44.0000006556511,92.,23.));
#1561=CARTESIAN_POINT('',(86.0000012022162,106.171572929797,23.));
#1562=CARTESIAN_POINT('',(86.0000000771354,77.,23.));
#1563=CARTESIAN_POINT('',(86.0000003278255,83.4999992286458,23.));
#1564=CARTESIAN_POINT('',(85.1715741639636,107.,23.));
#1565=CARTESIAN_POINT('',(78.8357879434219,113.335786464898,23.));
#1566=CARTESIAN_POINT('',(2.82842712474617,107.,23.));
#1567=CARTESIAN_POINT('',(66.0000003278255,107.,23.));
#1568=CARTESIAN_POINT('',(2.00000000000001,106.171572875254,23.));
#1569=CARTESIAN_POINT('',(9.1642137262859,113.33578660154,23.));
#1570=CARTESIAN_POINT('',(2.,77.,23.));
#1571=CARTESIAN_POINT('',(2.,100.5,23.));
#1572=CARTESIAN_POINT('',(22.0000003278255,77.,23.));
#1573=CARTESIAN_POINT('Origin',(44.808,85.7170000000002,23.));
#1574=CARTESIAN_POINT('',(44.808,91.2970000000002,16.));
#1575=CARTESIAN_POINT('',(44.808,80.3585000000001,16.));
#1576=CARTESIAN_POINT('',(44.808,91.2970000000002,23.));
#1577=CARTESIAN_POINT('Origin',(44.808,91.2970000000002,23.));
#1578=CARTESIAN_POINT('',(27.404,91.2970000000002,16.));
#1579=CARTESIAN_POINT('Origin',(81.5271789405284,53.6782205842672,18.5));
#1580=CARTESIAN_POINT('',(82.0271789405284,11.8564411685344,19.));
#1581=CARTESIAN_POINT('',(82.0271789405284,53.8564411685344,19.));
#1582=CARTESIAN_POINT('',(82.0271789405284,53.6782205842672,19.));
#1583=CARTESIAN_POINT('',(81.0271789405284,52.8564411685344,18.));
#1584=CARTESIAN_POINT('',(82.0271789405284,53.8564411685344,19.));
#1585=CARTESIAN_POINT('',(81.0271789405284,12.8564411685344,18.));
#1586=CARTESIAN_POINT('',(81.0271789405284,53.6782205842672,18.));
#1587=CARTESIAN_POINT('',(81.0271789405284,12.8564411685344,18.));
#1588=CARTESIAN_POINT('Origin',(27.5135894702642,53.3564411685344,18.5));
#1589=CARTESIAN_POINT('',(10.0271789405284,53.8564411685344,19.));
#1590=CARTESIAN_POINT('',(27.5135894702642,53.8564411685344,19.));
#1591=CARTESIAN_POINT('',(11.0271789405284,52.8564411685344,18.));
#1592=CARTESIAN_POINT('',(10.0271789405284,53.8564411685344,19.));
#1593=CARTESIAN_POINT('',(27.5135894702642,52.8564411685344,18.));
#1594=CARTESIAN_POINT('Origin',(10.5271789405284,33.6782205842672,18.5));
#1595=CARTESIAN_POINT('',(11.0271789405284,12.8564411685344,18.));
#1596=CARTESIAN_POINT('',(11.0271789405284,33.6782205842672,18.));
#1597=CARTESIAN_POINT('',(10.0271789405284,11.8564411685344,19.));
#1598=CARTESIAN_POINT('',(10.0271789405284,33.6782205842672,19.));
#1599=CARTESIAN_POINT('',(10.0271789405284,11.8564411685344,19.));
#1600=CARTESIAN_POINT('Origin',(62.5135894702642,12.3564411685344,18.5));
#1601=CARTESIAN_POINT('',(62.5135894702642,11.8564411685344,19.));
#1602=CARTESIAN_POINT('',(62.5135894702642,12.8564411685344,18.));
#1603=CARTESIAN_POINT('Origin',(81.0271789405284,12.8564411685344,19.));
#1604=CARTESIAN_POINT('',(81.0271789405284,12.8564411685344,13.));
#1605=CARTESIAN_POINT('',(81.0271789405284,12.8564411685344,19.));
#1606=CARTESIAN_POINT('',(11.0271789405284,12.8564411685344,13.));
#1607=CARTESIAN_POINT('',(62.5135894702642,12.8564411685344,13.));
#1608=CARTESIAN_POINT('',(11.0271789405284,12.8564411685344,19.));
#1609=CARTESIAN_POINT('Origin',(81.0271789405284,52.8564411685344,19.));
#1610=CARTESIAN_POINT('',(81.0271789405284,52.8564411685344,13.));
#1611=CARTESIAN_POINT('',(81.0271789405284,52.8564411685344,19.));
#1612=CARTESIAN_POINT('',(81.0271789405284,53.6782205842672,13.));
#1613=CARTESIAN_POINT('Origin',(44.,54.5,19.));
#1614=CARTESIAN_POINT('',(86.,75.,19.));
#1615=CARTESIAN_POINT('',(86.,2.82842712474617,19.));
#1616=CARTESIAN_POINT('',(86.,27.25,19.));
#1617=CARTESIAN_POINT('',(1.99999999999999,75.,19.));
#1618=CARTESIAN_POINT('',(22.,75.,19.));
#1619=CARTESIAN_POINT('',(1.99999999999999,2.82842712474617,19.));
#1620=CARTESIAN_POINT('',(1.99999999999999,81.75,19.));
#1621=CARTESIAN_POINT('',(2.82842712474616,2.,19.));
#1622=CARTESIAN_POINT('',(-0.210786437626931,5.03921356237309,19.));
#1623=CARTESIAN_POINT('',(85.1715728752538,2.,19.));
#1624=CARTESIAN_POINT('',(22.,2.,19.));
#1625=CARTESIAN_POINT('',(88.210786437627,5.03921356237313,19.));
#1626=CARTESIAN_POINT('',(58.0771789405284,54.9655289862021,19.));
#1627=CARTESIAN_POINT('',(58.0771789405284,67.9655289862021,19.));
#1628=CARTESIAN_POINT('',(58.0771789405284,54.732764493101,19.));
#1629=CARTESIAN_POINT('',(58.5771789405284,68.4655289862021,19.));
#1630=CARTESIAN_POINT('Origin',(58.5771789405284,67.9655289862021,19.));
#1631=CARTESIAN_POINT('',(71.5771789405284,68.4655289862021,19.));
#1632=CARTESIAN_POINT('',(51.2885894702642,68.4655289862021,19.));
#1633=CARTESIAN_POINT('',(72.0771789405284,67.9655289862021,19.));
#1634=CARTESIAN_POINT('Origin',(71.5771789405284,67.9655289862021,19.));
#1635=CARTESIAN_POINT('',(72.0771789405284,54.9655289862021,19.));
#1636=CARTESIAN_POINT('',(72.0771789405284,61.232764493101,19.));
#1637=CARTESIAN_POINT('',(71.5771789405284,54.465528986202,19.));
#1638=CARTESIAN_POINT('Origin',(71.5771789405284,54.9655289862021,19.));
#1639=CARTESIAN_POINT('',(58.5771789405284,54.465528986202,19.));
#1640=CARTESIAN_POINT('',(57.7885894702642,54.4655289862021,19.));
#1641=CARTESIAN_POINT('Origin',(58.5771789405284,54.9655289862021,19.));
#1642=CARTESIAN_POINT('Origin',(87.,76.,16.));
#1643=CARTESIAN_POINT('',(88.,77.,17.));
#1644=CARTESIAN_POINT('',(79.2083333333334,68.2083333333333,25.7916666666667));
#1645=CARTESIAN_POINT('',(88.,77.,19.));
#1646=CARTESIAN_POINT('',(88.,77.,16.));
#1647=CARTESIAN_POINT('',(88.,77.,19.));
#1648=CARTESIAN_POINT('Origin',(87.0000000385677,76.,19.));
#1649=CARTESIAN_POINT('',(87.0000000385677,76.,22.));
#1650=CARTESIAN_POINT('',(86.,75.,21.));
#1651=CARTESIAN_POINT('',(75.666666189927,64.6666665884599,10.66666658846));
#1652=CARTESIAN_POINT('',(86.,75.,19.));
#1653=CARTESIAN_POINT('',(88.0000000771354,77.,21.));
#1654=CARTESIAN_POINT('',(88.0000000771354,77.,19.));
#1655=CARTESIAN_POINT('',(88.7499999742882,77.749999868227,20.250000131773));
#1656=CARTESIAN_POINT('Origin',(0.,75.,19.));
#1657=CARTESIAN_POINT('',(2.,75.,21.));
#1658=CARTESIAN_POINT('',(22.0000003278255,75.,21.));
#1659=CARTESIAN_POINT('',(2.,75.,16.));
#1660=CARTESIAN_POINT('Origin',(22.0000003278255,76.,22.));
#1661=CARTESIAN_POINT('',(86.0000000771354,77.,23.));
#1662=CARTESIAN_POINT('',(0.999999999999996,76.,22.));
#1663=CARTESIAN_POINT('',(2.,77.,23.));
#1664=CARTESIAN_POINT('',(5.50000005463761,71.4999999453624,17.4999999453624));
#1665=CARTESIAN_POINT('Origin',(0.999999999999996,76.,16.));
#1666=CARTESIAN_POINT('',(-8.88178419700125E-15,77.,21.));
#1667=CARTESIAN_POINT('',(-4.08333333333335,81.0833333333333,16.9166666666667));
#1668=CARTESIAN_POINT('',(-8.88178419700125E-15,77.,17.));
#1669=CARTESIAN_POINT('',(-8.88178419700125E-15,77.,16.));
#1670=CARTESIAN_POINT('',(-0.291666666666675,77.2916666666666,16.7083333333333));
#1671=CARTESIAN_POINT('Origin',(-8.88178419700125E-15,109.,13.));
#1672=CARTESIAN_POINT('',(-8.88178419700125E-15,2.,17.));
#1673=CARTESIAN_POINT('',(-8.88178419700125E-15,81.75,17.));
#1674=CARTESIAN_POINT('',(-8.88178419700125E-15,107.,21.));
#1675=CARTESIAN_POINT('',(-8.88178419700125E-15,100.5,21.));
#1676=CARTESIAN_POINT('',(-8.88178419700125E-15,107.,13.));
#1677=CARTESIAN_POINT('',(-8.88178419700125E-15,107.,13.));
#1678=CARTESIAN_POINT('',(-8.88178419700125E-15,2.,13.));
#1679=CARTESIAN_POINT('',(-8.88178419700125E-15,0.,13.));
#1680=CARTESIAN_POINT('',(-8.88178419700125E-15,2.,13.));
#1681=CARTESIAN_POINT('Origin',(0.999999999999996,100.5,22.));
#1682=CARTESIAN_POINT('',(2.,106.171572875254,23.));
#1683=CARTESIAN_POINT('Origin',(87.,27.25,18.));
#1684=CARTESIAN_POINT('',(88.,2.,17.));
#1685=CARTESIAN_POINT('',(88.,13.625,17.));
#1686=CARTESIAN_POINT('',(86.,2.82842712474617,19.));
#1687=CARTESIAN_POINT('Origin',(88.9178932188135,4.33210678118659,18.));
#1688=CARTESIAN_POINT('',(86.,0.,17.));
#1689=CARTESIAN_POINT('',(89.6250000000001,3.62500000000005,17.));
#1690=CARTESIAN_POINT('',(85.1715728752538,2.,19.));
#1691=CARTESIAN_POINT('Origin',(22.,1.,18.));
#1692=CARTESIAN_POINT('',(1.99999999999999,0.,17.));
#1693=CARTESIAN_POINT('',(22.,0.,17.));
#1694=CARTESIAN_POINT('',(2.82842712474615,2.,19.));
#1695=CARTESIAN_POINT('Origin',(-0.917893218813473,4.33210678118655,18.));
#1696=CARTESIAN_POINT('',(-1.62500000000001,3.62500000000001,17.));
#1697=CARTESIAN_POINT('',(1.99999999999999,2.82842712474617,19.));
#1698=CARTESIAN_POINT('Origin',(0.999999999999992,81.75,18.));
#1699=CARTESIAN_POINT('Origin',(88.,0.,13.));
#1700=CARTESIAN_POINT('',(88.,1.99999999999999,13.));
#1701=CARTESIAN_POINT('',(88.,2.,13.));
#1702=CARTESIAN_POINT('',(88.,107.,13.));
#1703=CARTESIAN_POINT('',(88.,109.,13.));
#1704=CARTESIAN_POINT('',(88.,107.,19.));
#1705=CARTESIAN_POINT('',(88.,107.,13.));
#1706=CARTESIAN_POINT('',(88.,109.,19.));
#1707=CARTESIAN_POINT('Origin',(87.,1.,13.));
#1708=CARTESIAN_POINT('',(86.,0.,13.));
#1709=CARTESIAN_POINT('',(86.,0.,13.));
#1710=CARTESIAN_POINT('',(89.6250000000001,3.62500000000004,13.));
#1711=CARTESIAN_POINT('Origin',(-8.88178419700125E-15,0.,13.));
#1712=CARTESIAN_POINT('',(1.99999999999999,0.,13.));
#1713=CARTESIAN_POINT('',(1.99999999999999,0.,13.));
#1714=CARTESIAN_POINT('',(88.,0.,13.));
#1715=CARTESIAN_POINT('Origin',(0.999999999999991,1.,13.));
#1716=CARTESIAN_POINT('',(-1.62500000000002,3.625,13.));
#1717=CARTESIAN_POINT('Origin',(87.0000003278255,83.4999991900781,22.));
#1718=CARTESIAN_POINT('',(88.0000012341668,107.,21.));
#1719=CARTESIAN_POINT('',(88.0000003278255,83.4999991515104,21.));
#1720=CARTESIAN_POINT('',(86.0000012022162,106.171572929797,23.));
#1721=CARTESIAN_POINT('Origin',(8.45710694509936,114.042893382726,22.));
#1722=CARTESIAN_POINT('',(1.99999999999999,109.,21.));
#1723=CARTESIAN_POINT('',(7.75000016391282,114.750000163913,21.));
#1724=CARTESIAN_POINT('',(2.82842712474617,107.,23.));
#1725=CARTESIAN_POINT('Origin',(66.0000003278255,108.,22.));
#1726=CARTESIAN_POINT('',(86.0000013113022,109.,21.));
#1727=CARTESIAN_POINT('',(66.0000003278255,109.,21.));
#1728=CARTESIAN_POINT('',(85.1715741639636,107.,23.));
#1729=CARTESIAN_POINT('Origin',(79.5428947382442,114.042893232449,22.));
#1730=CARTESIAN_POINT('',(80.2500015330665,114.75,21.));
#1731=CARTESIAN_POINT('Origin',(88.,109.,13.));
#1732=CARTESIAN_POINT('',(86.,109.,19.));
#1733=CARTESIAN_POINT('',(86.0000013113022,109.,16.));
#1734=CARTESIAN_POINT('',(86.,109.,13.));
#1735=CARTESIAN_POINT('',(86.,109.,13.));
#1736=CARTESIAN_POINT('',(1.99999999999999,109.,13.));
#1737=CARTESIAN_POINT('',(-8.88178419700125E-15,109.,13.));
#1738=CARTESIAN_POINT('',(1.99999999999999,109.,13.));
#1739=CARTESIAN_POINT('Origin',(87.0000012727345,108.,16.));
#1740=CARTESIAN_POINT('',(88.0000012341668,107.,16.));
#1741=CARTESIAN_POINT('',(86.,109.,19.));
#1742=CARTESIAN_POINT('Origin',(88.,75.,19.));
#1743=CARTESIAN_POINT('Origin',(87.,108.,13.));
#1744=CARTESIAN_POINT('',(89.625,105.375,13.));
#1745=CARTESIAN_POINT('Origin',(44.,54.5,13.));
#1746=CARTESIAN_POINT('',(-1.62499999999997,105.375,13.));
#1747=CARTESIAN_POINT('',(81.6000012367964,5.00000007450581,13.));
#1748=CARTESIAN_POINT('Origin',(83.0000012367964,5.00000007450581,13.));
#1749=CARTESIAN_POINT('',(81.6000012367964,104.000001549721,13.));
#1750=CARTESIAN_POINT('Origin',(83.0000012367964,104.000001549721,13.));
#1751=CARTESIAN_POINT('',(3.60000007450581,5.00000007450581,13.));
#1752=CARTESIAN_POINT('Origin',(5.00000007450581,5.00000007450581,13.));
#1753=CARTESIAN_POINT('',(3.6000000745058,104.000001549721,13.));
#1754=CARTESIAN_POINT('Origin',(5.00000007450581,104.000001549721,13.));
#1755=CARTESIAN_POINT('',(10.,99.,13.));
#1756=CARTESIAN_POINT('',(10.,75.,13.));
#1757=CARTESIAN_POINT('',(10.,64.75,13.));
#1758=CARTESIAN_POINT('',(78.,75.,13.));
#1759=CARTESIAN_POINT('',(61.,75.,13.));
#1760=CARTESIAN_POINT('',(78.,99.,13.));
#1761=CARTESIAN_POINT('',(78.,76.75,13.));
#1762=CARTESIAN_POINT('',(27.,99.,13.));
#1763=CARTESIAN_POINT('',(58.0771789405284,67.9655289862021,13.));
#1764=CARTESIAN_POINT('',(58.0771789405284,54.9655289862021,13.));
#1765=CARTESIAN_POINT('',(58.0771789405284,54.732764493101,13.));
#1766=CARTESIAN_POINT('',(58.5771789405284,54.465528986202,13.));
#1767=CARTESIAN_POINT('Origin',(58.5771789405284,54.9655289862021,13.));
#1768=CARTESIAN_POINT('',(71.5771789405284,54.465528986202,13.));
#1769=CARTESIAN_POINT('',(57.7885894702642,54.4655289862021,13.));
#1770=CARTESIAN_POINT('',(72.0771789405284,54.9655289862021,13.));
#1771=CARTESIAN_POINT('Origin',(71.5771789405284,54.9655289862021,13.));
#1772=CARTESIAN_POINT('',(72.0771789405284,67.9655289862021,13.));
#1773=CARTESIAN_POINT('',(72.0771789405284,61.232764493101,13.));
#1774=CARTESIAN_POINT('',(71.5771789405284,68.4655289862021,13.));
#1775=CARTESIAN_POINT('Origin',(71.5771789405284,67.9655289862021,13.));
#1776=CARTESIAN_POINT('',(58.5771789405284,68.4655289862021,13.));
#1777=CARTESIAN_POINT('',(51.2885894702642,68.4655289862021,13.));
#1778=CARTESIAN_POINT('Origin',(58.5771789405284,67.9655289862021,13.));
#1779=CARTESIAN_POINT('',(11.0271789405284,52.8564411685344,13.));
#1780=CARTESIAN_POINT('',(27.5135894702642,52.8564411685344,13.));
#1781=CARTESIAN_POINT('',(11.0271789405284,33.6782205842672,13.));
#1782=CARTESIAN_POINT('Origin',(0.999999999999992,108.,13.));
#1783=CARTESIAN_POINT('Origin',(83.0000012367964,5.00000007450581,13.));
#1784=CARTESIAN_POINT('',(81.6000012367964,5.00000007450581,16.));
#1785=CARTESIAN_POINT('',(81.6000012367964,5.00000007450581,13.));
#1786=CARTESIAN_POINT('Origin',(83.0000012367964,5.00000007450581,16.));
#1787=CARTESIAN_POINT('Origin',(83.0000012367964,5.00000007450581,16.));
#1788=CARTESIAN_POINT('Origin',(83.0000012367964,104.000001549721,13.));
#1789=CARTESIAN_POINT('',(81.6000012367964,104.000001549721,16.));
#1790=CARTESIAN_POINT('',(81.6000012367964,104.000001549721,13.));
#1791=CARTESIAN_POINT('Origin',(83.0000012367964,104.000001549721,16.));
#1792=CARTESIAN_POINT('Origin',(83.0000012367964,104.000001549721,16.));
#1793=CARTESIAN_POINT('Origin',(5.00000007450581,5.00000007450581,13.));
#1794=CARTESIAN_POINT('',(3.60000007450581,5.00000007450581,16.));
#1795=CARTESIAN_POINT('',(3.60000007450581,5.00000007450581,13.));
#1796=CARTESIAN_POINT('Origin',(5.00000007450581,5.00000007450581,16.));
#1797=CARTESIAN_POINT('Origin',(5.00000007450581,5.00000007450581,16.));
#1798=CARTESIAN_POINT('Origin',(5.00000007450581,104.000001549721,13.));
#1799=CARTESIAN_POINT('',(3.6000000745058,104.000001549721,16.));
#1800=CARTESIAN_POINT('',(3.6000000745058,104.000001549721,13.));
#1801=CARTESIAN_POINT('Origin',(5.00000007450581,104.000001549721,16.));
#1802=CARTESIAN_POINT('Origin',(5.00000007450581,104.000001549721,16.));
#1803=CARTESIAN_POINT('Origin',(11.0271789405284,12.8564411685344,19.));
#1804=CARTESIAN_POINT('',(11.0271789405284,52.8564411685344,19.));
#1805=CARTESIAN_POINT('Origin',(11.0271789405284,52.8564411685344,19.));
#1806=CARTESIAN_POINT('Origin',(10.,75.,16.));
#1807=CARTESIAN_POINT('',(10.,99.,16.));
#1808=CARTESIAN_POINT('',(10.,75.,16.));
#1809=CARTESIAN_POINT('',(10.,75.,16.));
#1810=CARTESIAN_POINT('',(78.,99.,16.));
#1811=CARTESIAN_POINT('',(10.,99.,16.));
#1812=CARTESIAN_POINT('',(78.,75.,16.));
#1813=CARTESIAN_POINT('',(78.,87.,16.));
#1814=CARTESIAN_POINT('',(44.,75.,16.));
#1815=CARTESIAN_POINT('Origin',(10.,99.,16.));
#1816=CARTESIAN_POINT('',(10.,99.,16.));
#1817=CARTESIAN_POINT('',(78.,99.,16.));
#1818=CARTESIAN_POINT('Origin',(10.,75.,16.));
#1819=CARTESIAN_POINT('',(10.,75.,16.));
#1820=CARTESIAN_POINT('Origin',(78.,75.,16.));
#1821=CARTESIAN_POINT('',(78.,75.,16.));
#1822=CARTESIAN_POINT('Origin',(78.,99.,16.));
#1823=CARTESIAN_POINT('Origin',(72.0771789405284,67.9655289862021,16.3927469926113));
#1824=CARTESIAN_POINT('',(72.0771789405284,67.9655289862021,16.3927469926113));
#1825=CARTESIAN_POINT('',(72.0771789405284,54.9655289862021,16.3927469926113));
#1826=CARTESIAN_POINT('Origin',(71.5771789405284,54.9655289862021,16.3927469926113));
#1827=CARTESIAN_POINT('',(71.5771789405284,54.465528986202,16.3927469926113));
#1828=CARTESIAN_POINT('Origin',(71.5771789405284,54.465528986202,16.3927469926113));
#1829=CARTESIAN_POINT('',(58.5771789405284,54.465528986202,16.3927469926113));
#1830=CARTESIAN_POINT('Origin',(58.5771789405284,54.9655289862021,16.3927469926113));
#1831=CARTESIAN_POINT('',(58.0771789405284,54.9655289862021,16.3927469926113));
#1832=CARTESIAN_POINT('Origin',(58.0771789405284,54.9655289862021,16.3927469926113));
#1833=CARTESIAN_POINT('',(58.0771789405284,67.9655289862021,16.));
#1834=CARTESIAN_POINT('Origin',(71.5771789405284,67.9655289862021,16.3927469926113));
#1835=CARTESIAN_POINT('',(71.5771789405284,68.4655289862021,16.3927469926113));
#1836=CARTESIAN_POINT('Origin',(58.5771789405284,68.4655289862021,16.3927469926113));
#1837=CARTESIAN_POINT('',(58.5771789405284,68.4655289862021,16.3927469926113));
#1838=CARTESIAN_POINT('Origin',(58.5771789405284,67.9655289862021,16.3927469926113));
#1839=UNCERTAINTY_MEASURE_WITH_UNIT(LENGTH_MEASURE(0.01),#1843,
'DISTANCE_ACCURACY_VALUE',
'Maximum model space distance between geometric entities at asserted c
onnectivities');
#1840=UNCERTAINTY_MEASURE_WITH_UNIT(LENGTH_MEASURE(0.01),#1843,
'DISTANCE_ACCURACY_VALUE',
'Maximum model space distance between geometric entities at asserted c
onnectivities');
#1841=(
GEOMETRIC_REPRESENTATION_CONTEXT(3)
GLOBAL_UNCERTAINTY_ASSIGNED_CONTEXT((#1839))
GLOBAL_UNIT_ASSIGNED_CONTEXT((#1843,#1844,#1845))
REPRESENTATION_CONTEXT('','3D')
);
#1842=(
GEOMETRIC_REPRESENTATION_CONTEXT(3)
GLOBAL_UNCERTAINTY_ASSIGNED_CONTEXT((#1840))
GLOBAL_UNIT_ASSIGNED_CONTEXT((#1843,#1844,#1845))
REPRESENTATION_CONTEXT('','3D')
);
#1843=(
LENGTH_UNIT()
NAMED_UNIT(*)
SI_UNIT(.MILLI.,.METRE.)
);
#1844=(
NAMED_UNIT(*)
PLANE_ANGLE_UNIT()
SI_UNIT($,.RADIAN.)
);
#1845=(
NAMED_UNIT(*)
SI_UNIT($,.STERADIAN.)
SOLID_ANGLE_UNIT()
);
#1846=SHAPE_DEFINITION_REPRESENTATION(#1847,#1848);
#1847=PRODUCT_DEFINITION_SHAPE('',$,#1850);
#1848=SHAPE_REPRESENTATION('',(#1142),#1841);
#1849=PRODUCT_DEFINITION_CONTEXT('part definition',#1854,'design');
#1850=PRODUCT_DEFINITION('2026-06-11-00-58-49-890','Top',#1851,#1849);
#1851=PRODUCT_DEFINITION_FORMATION('',$,#1856);
#1852=PRODUCT_RELATED_PRODUCT_CATEGORY('Top','Top',(#1856));
#1853=APPLICATION_PROTOCOL_DEFINITION('international standard',
'automotive_design',2009,#1854);
#1854=APPLICATION_CONTEXT(
'Core Data for Automotive Mechanical Design Process');
#1855=PRODUCT_CONTEXT('part definition',#1854,'mechanical');
#1856=PRODUCT('2026-06-11-00-58-49-890','Top',$,(#1855));
#1857=PRESENTATION_STYLE_ASSIGNMENT((#1858));
#1858=SURFACE_STYLE_USAGE(.BOTH.,#1859);
#1859=SURFACE_SIDE_STYLE('',(#1860));
#1860=SURFACE_STYLE_FILL_AREA(#1861);
#1861=FILL_AREA_STYLE('Steel - Satin',(#1862));
#1862=FILL_AREA_STYLE_COLOUR('Steel - Satin',#1863);
#1863=COLOUR_RGB('Steel - Satin',0.627450980392157,0.627450980392157,0.627450980392157);
ENDSEC;
END-ISO-10303-21;
